<svg xmlns="http://www.w3.org/2000/svg" width="132.072" height="36.511" viewBox="0 0 132.072 36.511">
  <g id="logo" transform="translate(-60.882 -216.021)">
    <path id="패스_1" data-name="패스 1" d="M295.02,220.519a2.249,2.249,0,1,0-2.249-2.249A2.251,2.251,0,0,0,295.02,220.519Z" transform="translate(-170.039)" fill="#e50012" fill-rule="evenodd"/>
    <path id="패스_2" data-name="패스 2" d="M295.02,239.82a2.249,2.249,0,1,0-2.249-2.249A2.234,2.234,0,0,0,295.02,239.82Z" transform="translate(-170.039 -14.153)" fill="#e50012" fill-rule="evenodd"/>
    <path id="패스_3" data-name="패스 3" d="M270.473,241.131a2.262,2.262,0,1,0,2.249-2.249A2.24,2.24,0,0,0,270.473,241.131Z" transform="translate(-153.688 -16.763)" fill="#e50012" fill-rule="evenodd"/>
    <path id="패스_4" data-name="패스 4" d="M317.507,242.35a2.249,2.249,0,1,0-2.249-2.249A2.24,2.24,0,0,0,317.507,242.35Z" transform="translate(-186.528 -16.008)" fill="#e50012" fill-rule="evenodd"/>
    <path id="패스_5" data-name="패스 5" d="M321.63,223.33a2.249,2.249,0,1,0-2.249-2.249A2.256,2.256,0,0,0,321.63,223.33Z" transform="translate(-189.551 -2.061)" fill="#e50012" fill-rule="evenodd"/>
    <path id="패스_6" data-name="패스 6" d="M268.293,223.73a2.262,2.262,0,1,0,0-4.523,2.262,2.262,0,0,0,0,4.523Z" transform="translate(-150.459 -2.336)" fill="#e50012" fill-rule="evenodd"/>
    <path id="패스_7" data-name="패스 7" d="M338.868,245.722a2.349,2.349,0,0,0-1.175.3,2.282,2.282,0,0,0,0,3.873,2.367,2.367,0,0,0,1.175.325,2.249,2.249,0,1,0,0-4.5Z" transform="translate(-202.192 -21.779)" fill="#e50012" fill-rule="evenodd"/>
    <path id="패스_8" data-name="패스 8" d="M347.114,227.733a2.249,2.249,0,1,0,2.274,2.249A2.255,2.255,0,0,0,347.114,227.733Z" transform="translate(-208.238 -8.588)" fill="#e50012" fill-rule="evenodd"/>
    <path id="패스_9" data-name="패스 9" d="M280.755,258.653a21.624,21.624,0,0,0-20.792-.125,1.508,1.508,0,0,1-.3.125c-.675.55-.875,1.05-.625,1.5.125.4.5.474.925.35a2.072,2.072,0,0,0,.525-.15c6.8-3.648,13.745-3.9,20.117.075a.357.357,0,0,1,.15.05,1,1,0,0,0,1.024-.225,1.094,1.094,0,0,0-.3-1.2A6.74,6.74,0,0,0,280.755,258.653Z" transform="translate(-145.227 -29.263)" fill="#e50012" fill-rule="evenodd"/>
    <path id="패스_10" data-name="패스 10" d="M283.718,266.882c-5.6-3.723-12.145-4.073-19.717-.325-.575.475-.775.924-.575,1.324.175.525.725.4,1.325.175,6.123-3.274,12.42-3.523,18.168.075a.94.94,0,0,0,1.049-.15.092.092,0,0,1,.025-.075,1.215,1.215,0,0,0,0-.6A1.127,1.127,0,0,0,283.718,266.882Z" transform="translate(-148.465 -35.117)" fill="#e50012" fill-rule="evenodd"/>
    <path id="패스_11" data-name="패스 11" d="M254.265,248.439a2.237,2.237,0,0,0-1.024-1.9,2.249,2.249,0,1,0,0,3.8A2.237,2.237,0,0,0,254.265,248.439Z" transform="translate(-138.505 -22.122)" fill="#e50012" fill-rule="evenodd"/>
    <path id="패스_12" data-name="패스 12" d="M245.108,230.356a2.262,2.262,0,1,0-2.274,2.274A2.277,2.277,0,0,0,245.108,230.356Z" transform="translate(-131.772 -8.862)" fill="#e50012" fill-rule="evenodd"/>
    <path id="패스_13" data-name="패스 13" d="M174.384,291.285c.25-.974.125-1.6-.4-1.924a1.769,1.769,0,0,0-1.674-.425c-.125.05-.275.1-.425.175l-4.5,4.8-4.8-4.723a1.587,1.587,0,0,0-1.749,0,2.011,2.011,0,0,0-.35.3,1.939,1.939,0,0,0-.2,2.249c.175.175.375.375.55.575,1.649,1.8,3.324,3.574,4.973,5.348v6.722c.425.9,1,1.325,1.7,1.25a1.7,1.7,0,0,0,1.7-1.124v-6.972c1.024-1.25,2.074-2.5,3.1-3.749C173.009,292.959,173.684,292.109,174.384,291.285Z" transform="translate(-72.693 -53.422)" fill="#e50012" fill-rule="evenodd"/>
    <path id="패스_14" data-name="패스 14" d="M206.749,297.67h0c-.35,0-.7,0-1.05.025a12.31,12.31,0,0,1,1.05-1.574,10.891,10.891,0,0,1,1.025-1.15c0,.9.025,1.8.025,2.7Zm3.374-9.971a1.6,1.6,0,0,0-1.874.7c-.525.6-1,1.225-1.5,1.849-2.3,2.974-4.473,6.023-6.648,9.1-.7.974-1.4,1.949-2.1,2.949a1.731,1.731,0,0,0,.65,2,2.265,2.265,0,0,0,1.449.375,2.188,2.188,0,0,0,.8-.275c.8-1.05,1.6-2.1,2.424-3.149H207.9v2.174a1.831,1.831,0,0,0,1.874,1.274,1.605,1.605,0,0,0,1.724-1.424V289.073C211.372,288.2,210.922,287.724,210.122,287.7Z" transform="translate(-100.485 -52.51)" fill="#e50012" fill-rule="evenodd"/>
    <path id="패스_15" data-name="패스 15" d="M111.49,302.259h0a4.561,4.561,0,1,1,4.548-4.573A4.57,4.57,0,0,1,111.49,302.259Zm0-12.97a8.42,8.42,0,0,0-8.222,6.522,9.163,9.163,0,0,0-.225,1.874,9.635,9.635,0,0,0,.225,1.9,8.431,8.431,0,1,0,8.222-10.3Z" transform="translate(-30.916 -53.726)" fill="#e50012" fill-rule="evenodd"/>
    <path id="패스_16" data-name="패스 16" d="M66.33,297.152h0a1.877,1.877,0,0,1-1.9-1.874,1.9,1.9,0,1,1,3.8,0A1.877,1.877,0,0,1,66.33,297.152Zm6.023,6.748c-.875-1.3-1.774-2.6-2.649-3.9.425-.5.875-.974,1.324-1.474a6.051,6.051,0,0,0,.925-3.649,5.37,5.37,0,0,0-1.674-3.574,4.934,4.934,0,0,0-3.773-1.549c-.075,0-.125.025-.175.025a7.063,7.063,0,0,0-3.5,1.4,6.863,6.863,0,0,0-1.949,2.949c.075,3.449.15,6.922.225,10.4.2,1.4.875,2.1,1.949,2.074a1.747,1.747,0,0,0,1.7-1.449c0-1.45.05-2.924.075-4.4a.329.329,0,0,1,.175-.474c.475.1.575.45.75.75a5.617,5.617,0,0,0,.575.724c1.174,1.5,2.374,2.974,3.549,4.448a1.909,1.909,0,0,0,2.149-.175,2.152,2.152,0,0,0,.325-.5,1.67,1.67,0,0,0,.025-1.574C72.377,303.924,72.377,303.924,72.352,303.9Z" transform="translate(0 -54.067)" fill="#e50012" fill-rule="evenodd"/>
    <path id="패스_17" data-name="패스 17" d="M484.585,287.781a1.737,1.737,0,0,0-1.9,1.624v13.769a1.688,1.688,0,0,0,1.824,1.425,2.147,2.147,0,0,0,2.124-1.425V289.3A1.835,1.835,0,0,0,484.585,287.781Z" transform="translate(-309.299 -52.617)" fill="#e50012" fill-rule="evenodd"/>
    <path id="패스_18" data-name="패스 18" d="M518.954,287.321a1.8,1.8,0,0,0-1.7,1.225v8.221c-1.774-2.949-3.573-5.923-5.348-8.846a2.43,2.43,0,0,0-3.923,1.2V302.89c.05.9.65,1.3,1.849,1.275a1.747,1.747,0,0,0,1.724-1.275c0-2.874,0-5.747-.025-8.621,1.749,3,3.5,6,5.223,8.972a1.867,1.867,0,0,0,2.049.85,2.172,2.172,0,0,0,2-1.5V288.571A1.851,1.851,0,0,0,518.954,287.321Z" transform="translate(-327.849 -52.283)" fill="#e50012" fill-rule="evenodd"/>
    <path id="패스_19" data-name="패스 19" d="M436.036,287.883a1.8,1.8,0,0,0-1.7,1.225v8.222c-1.774-2.974-3.573-5.923-5.348-8.871a2.291,2.291,0,0,0-2.449-.4,2.216,2.216,0,0,0-1.475,1.624v13.77c.05.9.65,1.3,1.849,1.274a1.774,1.774,0,0,0,1.724-1.274c0-2.874,0-5.748-.025-8.622,1.749,3,3.5,5.972,5.248,8.971a1.8,1.8,0,0,0,2.024.825,2.115,2.115,0,0,0,2-1.474v-14.02A1.831,1.831,0,0,0,436.036,287.883Z" transform="translate(-267.047 -52.695)" fill="#e50012" fill-rule="evenodd"/>
    <path id="패스_20" data-name="패스 20" d="M325.1,299.48a5.649,5.649,0,0,1-3.2,1.849,3.832,3.832,0,0,1-3.2-.7,4.943,4.943,0,0,1-1.874-2.674,6.106,6.106,0,0,1,.05-3,4.083,4.083,0,0,1,1.824-2.224,4.791,4.791,0,0,1,2.674-.725,5.531,5.531,0,0,1,3.174,1.35,1.9,1.9,0,0,0,2.5.05,1.99,1.99,0,0,0,.075-2.549c-.225-.35-1.324-2.6-5.972-2.7a8.357,8.357,0,0,0-8.422,8.4A8.447,8.447,0,0,0,321.149,305c4.648,0,5.8-2.224,6.3-3.074a1.81,1.81,0,0,0-.225-2.074A1.857,1.857,0,0,0,325.1,299.48Z" transform="translate(-184.672 -52.896)" fill="#e50012" fill-rule="evenodd"/>
    <path id="패스_21" data-name="패스 21" d="M376.971,297.67h-1.049c0-.9.025-1.8.025-2.7.35.375.7.75,1.024,1.15A12.185,12.185,0,0,1,378,297.694C377.646,297.67,377.3,297.67,376.971,297.67Zm0-7.422c-.5-.625-1-1.249-1.5-1.849a1.612,1.612,0,0,0-1.874-.7,1.354,1.354,0,0,0-1.374,1.374v14.195a1.567,1.567,0,0,0,1.7,1.424,1.811,1.811,0,0,0,1.874-1.274v-2.174h4.6c.8,1.05,1.6,2.1,2.424,3.149a2.1,2.1,0,0,0,2.249-.1,1.766,1.766,0,0,0,.649-2C382.844,298.244,379.995,294.2,376.971,290.247Z" transform="translate(-228.299 -52.51)" fill="#e50012" fill-rule="evenodd"/>
    <path id="패스_22" data-name="패스 22" d="M265.5,301.139h-4.373v-11.77c-.05-1.824-3.674-1.824-3.674,0v14.269q.075.9.675.975H265.5C267.37,304.588,267.42,301.064,265.5,301.139Z" transform="translate(-144.138 -52.781)" fill="#e50012" fill-rule="evenodd"/>
  </g>
</svg>
