<svg xmlns="http://www.w3.org/2000/svg" width="59.973" height="47" viewBox="0 0 59.973 47">
  <path id="support_ico1" d="M4.325,33.857a22.582,22.582,0,0,1-2.51-5.508A19.23,19.23,0,0,1,1,22.906,15.347,15.347,0,0,1,5.628,11.628,15.347,15.347,0,0,1,16.906,7,16.736,16.736,0,0,1,24.6,8.858a19.6,19.6,0,0,1,6.388,5.248,19.6,19.6,0,0,1,6.388-5.248A16.736,16.736,0,0,1,45.067,7a15.347,15.347,0,0,1,11.277,4.628,15.347,15.347,0,0,1,4.628,11.277,18.689,18.689,0,0,1-.815,5.345,23.948,23.948,0,0,1-2.51,5.541,6.062,6.062,0,0,0-1.173-.913q-.652-.391-1.3-.717a22.071,22.071,0,0,0,2.151-4.726,15.26,15.26,0,0,0,.717-4.531,12.512,12.512,0,0,0-3.781-9.191,12.512,12.512,0,0,0-9.191-3.781,13.524,13.524,0,0,0-6.942,2.119,27.141,27.141,0,0,0-7.138,6.682,27.141,27.141,0,0,0-7.138-6.682,13.524,13.524,0,0,0-6.942-2.119,12.512,12.512,0,0,0-9.191,3.781,12.512,12.512,0,0,0-3.781,9.191,15.462,15.462,0,0,0,.717,4.6A22.071,22.071,0,0,0,6.8,32.227a7.526,7.526,0,0,0-1.3.684,7.205,7.205,0,0,0-1.173.945ZM1,54V51.262q0-2.347,2.607-3.911a12.9,12.9,0,0,1,6.714-1.564q.782,0,1.5.065a10.358,10.358,0,0,1,1.3.2,15.662,15.662,0,0,0-.652,2.021,9.111,9.111,0,0,0-.261,2.216V54Zm15.645,0V50.415q0-3.781,3.976-6.03a20.94,20.94,0,0,1,10.365-2.249q6.454,0,10.4,2.249t3.944,6.03V54ZM49.76,54V50.284a10.354,10.354,0,0,0-.228-2.216,9.633,9.633,0,0,0-.684-2.021,12.97,12.97,0,0,1,1.369-.2q.717-.065,1.434-.065A12.868,12.868,0,0,1,58.4,47.351a4.547,4.547,0,0,1,2.575,3.911V54ZM30.986,45.135a19.543,19.543,0,0,0-8.311,1.5q-3.162,1.5-3.1,3.846V51H42.394V50.48q.065-2.347-3.064-3.846A19.5,19.5,0,0,0,30.986,45.135ZM10.322,43.766a3.826,3.826,0,0,1-2.8-1.173,3.935,3.935,0,0,1,0-5.606,3.935,3.935,0,0,1,5.606,0,3.935,3.935,0,0,1,0,5.606,3.826,3.826,0,0,1-2.8,1.173Zm41.329,0a3.976,3.976,0,1,1,2.836-6.779,4.014,4.014,0,0,1,0,5.606A3.8,3.8,0,0,1,51.65,43.766ZM30.986,40.18a6.585,6.585,0,0,1-4.791-1.956A6.5,6.5,0,0,1,24.207,33.4a6.394,6.394,0,0,1,1.988-4.791,6.971,6.971,0,0,1,9.615,0A6.447,6.447,0,0,1,37.766,33.4a6.585,6.585,0,0,1-1.956,4.791A6.5,6.5,0,0,1,30.986,40.18Zm0-10.56A3.7,3.7,0,0,0,28.313,30.7,3.612,3.612,0,0,0,27.205,33.4a3.719,3.719,0,0,0,1.108,2.738,3.816,3.816,0,0,0,5.378,0A3.778,3.778,0,0,0,34.767,33.4a3.677,3.677,0,0,0-3.781-3.781ZM30.986,33.4ZM30.986,51Z" transform="translate(-1 -7)" fill="#3d3d3d"/>
</svg>
