<svg xmlns="http://www.w3.org/2000/svg" width="50.076" height="63.263" viewBox="0 0 50.076 63.263">
  <path id="support_ico2_w" d="M34.038,47.782a94.462,94.462,0,0,0,8.889-8.847,8.114,8.114,0,0,0,1.961-5.008,5.984,5.984,0,0,0-6.009-6.009,6.517,6.517,0,0,0-2.712.584,5.858,5.858,0,0,0-2.128,1.586A5.858,5.858,0,0,0,31.91,28.5a6.517,6.517,0,0,0-2.712-.584,5.984,5.984,0,0,0-6.009,6.009,7.908,7.908,0,0,0,.334,2.337,8.655,8.655,0,0,0,1.5,2.587,37.678,37.678,0,0,0,3.3,3.589Q30.449,44.527,34.038,47.782Zm0,20.531A32.211,32.211,0,0,1,16.094,55.335,37.228,37.228,0,0,1,9,33.26V14.4L34.038,5.05,59.077,14.4V33.26a37.228,37.228,0,0,1-7.094,22.075A32.211,32.211,0,0,1,34.038,68.313Zm0-4.006A29.083,29.083,0,0,0,49.353,52.623,33.406,33.406,0,0,0,55.321,33.26V17.068L34.038,9.056,12.756,17.068V33.26a33.406,33.406,0,0,0,5.967,19.363A29.083,29.083,0,0,0,34.038,64.307ZM34.038,36.682Z" transform="translate(-9 -5.05)" fill="#fff"/>
</svg>
