<svg xmlns="http://www.w3.org/2000/svg" width="58.541" height="57.073" viewBox="0 0 58.541 57.073">
  <path id="support_ico3_w" d="M45.378,33.724Q41.93,30.789,39,28a64.559,64.559,0,0,1-5.135-5.429,29.172,29.172,0,0,1-3.485-5.1,10.093,10.093,0,0,1-1.284-4.658A8.141,8.141,0,0,1,37.309,4.6,8.42,8.42,0,0,1,41.49,5.81a13.251,13.251,0,0,1,3.888,3.485A12.451,12.451,0,0,1,49.193,5.81,8.42,8.42,0,0,1,53.374,4.6a8.141,8.141,0,0,1,8.216,8.216,10.093,10.093,0,0,1-1.284,4.658,29.171,29.171,0,0,1-3.485,5.1A61.521,61.521,0,0,1,51.65,28Q48.679,30.789,45.378,33.724Zm0-4.622a117.561,117.561,0,0,0,8.95-8.73q3.961-4.328,3.961-7.556a4.648,4.648,0,0,0-4.842-4.842,5.829,5.829,0,0,0-2.678.7A10.156,10.156,0,0,0,47.8,11.349L45.378,14.43l-2.494-3.081a9.924,9.924,0,0,0-3.008-2.678,5.8,5.8,0,0,0-2.568-.7,4.811,4.811,0,0,0-3.558,1.357,4.717,4.717,0,0,0-1.357,3.485q0,3.228,3.961,7.556a110.6,110.6,0,0,0,9.023,8.73ZM39.509,61.673,16.4,55v3.961H3.05v-25.6H23.591l18.34,6.822a6.239,6.239,0,0,1,2.861,2.054,6.816,6.816,0,0,1,1.174,4.328h9.243a5.3,5.3,0,0,1,4.328,1.981A8.23,8.23,0,0,1,61.15,53.9V55ZM6.351,55.658h6.6v-19h-6.6Zm32.865,2.568L57.7,52.577a3.98,3.98,0,0,0-.917-2.017,2.138,2.138,0,0,0-1.577-.624H40.463a26.755,26.755,0,0,1-4-.293,20.933,20.933,0,0,1-3.485-.807L26.965,47l1.32-3.3,5.355,1.834a18.364,18.364,0,0,0,3.485.807,46.251,46.251,0,0,0,5.319.22,5.106,5.106,0,0,0-.367-1.981,2.232,2.232,0,0,0-1.247-1.247L23.077,36.658H16.4V51.476ZM12.953,46.121ZM42.444,46.561ZM12.953,46.121ZM16.4,46.121ZM45.378,18.465Z" transform="translate(-3.05 -4.6)" fill="#fff"/>
</svg>
