<svg xmlns="http://www.w3.org/2000/svg" width="63.795" height="43.033" viewBox="0 0 63.795 43.033">
  <path id="support_ico4_w" d="M53.734,36.373V26.785H44.146V23.312h9.588V13.724h3.473v9.588h9.588v3.473H57.207v9.588ZM25.649,30.107A9.689,9.689,0,0,1,15.608,20.066a9.64,9.64,0,0,1,2.831-7.172,9.837,9.837,0,0,1,7.21-2.793,9.837,9.837,0,0,1,7.21,2.793,9.64,9.64,0,0,1,2.831,7.172A9.689,9.689,0,0,1,25.649,30.107ZM3,53.133V47.4a7.587,7.587,0,0,1,4.605-7.021,55.1,55.1,0,0,1,9.475-3.246,38.1,38.1,0,0,1,8.569-.981,37.608,37.608,0,0,1,8.531.981,55.539,55.539,0,0,1,9.437,3.246,8.482,8.482,0,0,1,3.435,2.907A7.2,7.2,0,0,1,48.3,47.4v5.738Zm3.4-3.4H44.9V47.4a3.887,3.887,0,0,0-.755-2.227,5.131,5.131,0,0,0-1.963-1.7,42.3,42.3,0,0,0-8.569-3.1,36.654,36.654,0,0,0-7.965-.83,37.174,37.174,0,0,0-8,.83,42.011,42.011,0,0,0-8.607,3.1,4.845,4.845,0,0,0-1.925,1.7A4.024,4.024,0,0,0,6.4,47.4ZM25.649,26.709a6.356,6.356,0,0,0,4.681-1.887,6.448,6.448,0,0,0,1.887-4.756A6.448,6.448,0,0,0,25.649,13.5a6.448,6.448,0,0,0-6.568,6.568,6.448,6.448,0,0,0,1.887,4.756A6.356,6.356,0,0,0,25.649,26.709ZM25.649,20.066ZM25.649,49.736Z" transform="translate(-3 -10.1)" fill="#fff"/>
</svg>
