<svg id="footer_ico" xmlns="http://www.w3.org/2000/svg" width="120" height="40" viewBox="0 0 120 40">
  <rect id="사각형_53" data-name="사각형 53" width="40" height="40" transform="translate(40)" fill="none"/>
  <rect id="사각형_54" data-name="사각형 54" width="40" height="40" fill="none"/>
  <rect id="사각형_55" data-name="사각형 55" width="40" height="40" transform="translate(80)" fill="none"/>
  <g id="인스타" transform="translate(5 5)">
    <g id="그룹_1" data-name="그룹 1" transform="translate(0 0)">
      <path id="SVGID_1_" d="M14.879,9.1a10.532,10.532,0,0,0-3.558.682,7.38,7.38,0,0,0-2.577,1.7,7.026,7.026,0,0,0-1.679,2.594,10.957,10.957,0,0,0-.682,3.558C6.317,19.191,6.3,19.69,6.3,23.663c.017,3.973.033,4.472.1,6.035a10.339,10.339,0,0,0,.682,3.541,7.292,7.292,0,0,0,1.7,2.594,7.026,7.026,0,0,0,2.594,1.679,10.957,10.957,0,0,0,3.558.682c1.563.067,2.062.083,6.035.083,3.973-.017,4.472-.017,6.035-.1a10.532,10.532,0,0,0,3.558-.682,7.292,7.292,0,0,0,2.594-1.7,7.026,7.026,0,0,0,1.679-2.594,10.957,10.957,0,0,0,.682-3.558c.066-1.563.083-2.062.083-6.035-.017-3.973-.017-4.472-.1-6.035a10.532,10.532,0,0,0-.682-3.558,7.292,7.292,0,0,0-1.7-2.594,7.026,7.026,0,0,0-2.594-1.679,10.957,10.957,0,0,0-3.558-.682C25.386,9.017,24.887,9,20.914,9c-3.973.017-4.472.033-6.035.1m.166,26.451a8.119,8.119,0,0,1-2.71-.5,4.889,4.889,0,0,1-2.776-2.776,8.1,8.1,0,0,1-.515-2.71c-.067-1.546-.083-2.012-.1-5.919,0-3.907,0-4.372.067-5.919a8.118,8.118,0,0,1,.5-2.71,4.889,4.889,0,0,1,2.776-2.776,8.56,8.56,0,0,1,2.71-.515c1.546-.067,2.012-.083,5.9-.1,3.907,0,4.372,0,5.919.067a8.118,8.118,0,0,1,2.71.5,4.4,4.4,0,0,1,1.679,1.1,4.531,4.531,0,0,1,1.1,1.679,8.56,8.56,0,0,1,.515,2.71c.067,1.546.083,2.012.1,5.9.017,3.907,0,4.372-.066,5.919a8.347,8.347,0,0,1-.5,2.727A4.889,4.889,0,0,1,29.575,35a8.559,8.559,0,0,1-2.71.515c-1.546.067-2.012.083-5.919.1-3.89.017-4.356,0-5.9-.066M26.982,15.816a1.754,1.754,0,1,0,1.746-1.762,1.76,1.76,0,0,0-1.746,1.762m-13.55,7.83a7.515,7.515,0,1,0,7.5-7.531,7.507,7.507,0,0,0-7.5,7.531m2.627,0a4.88,4.88,0,1,1,4.888,4.871,4.892,4.892,0,0,1-4.888-4.871" transform="translate(-6.3 -9)" fill="rgba(255,255,255,0.3)"/>
    </g>
  </g>
  <g id="페이스북" transform="translate(52 4)">
    <g id="그룹_8" data-name="그룹 8" transform="translate(0 0)">
      <path id="패스_25" data-name="패스 25" d="M38.135,46.844V31.876H33.2V26.7h4.935V21.108A5.757,5.757,0,0,1,43.641,15.5h5.527v4.69H46.619c-1.264,0-2.937,1.02-2.937,2.284v4.242h4.976v5.159H43.682V46.844H38.135Z" transform="translate(-33.2 -15.5)" fill="rgba(255,255,255,0.3)"/>
    </g>
  </g>
  <path id="패스_28" data-name="패스 28" d="M108.23,92.16h8.327s7.557,11.7,7.786,12.009.253,0,.253,0a20.643,20.643,0,0,1-.729-5.515V92.16h8.294v21.667h-8.294s-7.4-11.074-7.629-11.379-.253,0-.253,0a14.807,14.807,0,0,1,.537,4.339v7.04H108.23Z" transform="translate(-20.23 -83.16)" fill="rgba(255,255,255,0.3)"/>
</svg>
