<svg xmlns="http://www.w3.org/2000/svg" width="574.091" height="86.521" viewBox="0 0 574.091 86.521">
  <g id="logo_b" transform="translate(5108.091 1685)">
    <g id="그룹_1" data-name="그룹 1" transform="translate(-5159.6 -1960.012)">
      <path id="패스_1" data-name="패스 1" d="M549.93,309.783c-5.916-3.843-7.072-5.681-6.945-9.125.123-3.326,3.008-6.982,8.4-7.859a15.755,15.755,0,0,1,13.378,4.271V290.9a32.731,32.731,0,0,0-18.529-1.007c-7.156,1.748-10.44,6.132-11.749,9.165s-1.68,8.792,1.6,12.563,10.635,8.447,14.79,11.15,8.179,5.752,7.983,11.477c-.156,4.447-4.607,9.475-13.314,8.365-5.033-.631-10.161-3.711-12.613-7.43v7.444c6.845,4.316,19.513,6.48,28.343.518,7.889-5.325,8.476-13.268,5.993-18.8S555.836,313.627,549.93,309.783Z" fill="#3d3d3d"/>
      <path id="패스_2" data-name="패스 2" d="M238.481,289.775v.631c3.433.571,2.769,3.694,2.035,5.444l-19.821,50h4.967l8.061-20.866h21.361l6.656,17.385c.741,2.024,2.289,3.481,5.33,3.481h6.788l-22.067-56.077Zm-3.58,31.9,9.5-24.859,9.456,24.859Z" fill="#3d3d3d"/>
      <path id="패스_3" data-name="패스 3" d="M368.234,289.775v.631c3.422.571,2.772,3.694,2.038,5.444l-19.84,50h4.986l8.047-20.866H384.83l6.648,17.385c.748,2.024,2.3,3.481,5.337,3.481H403.6l-22.069-56.077Zm-3.6,31.9,9.507-24.859,9.455,24.859Z" fill="#3d3d3d"/>
      <path id="패스_4" data-name="패스 4" d="M495.887,290.406c2.769.737,3.744,2.686,3.744,5.157v50.289h10.081V289.775H495.887Z" fill="#3d3d3d"/>
      <path id="패스_5" data-name="패스 5" d="M600.475,342.27V318.107h21.847v-3.578H600.475V293.1h22.789v-3.325H586.649v.631c2.763.737,3.748,2.686,3.748,5.157v50.289l35.2-.01V342.27Z" fill="#3d3d3d"/>
      <path id="패스_6" data-name="패스 6" d="M445.658,289.775H420.293v.631a4.682,4.682,0,0,1,3.734,4.813c0,.039.014.074.014.113v50.52h19.113c26.639,0,32.381-18.211,32.381-28.924C475.535,300.7,461.91,289.775,445.658,289.775Zm-2.193,52.873h-9.349V293.084h8.162c14.812,0,23.415,9.277,23.415,24.726S454.817,342.648,443.465,342.648Z" fill="#3d3d3d"/>
      <path id="패스_7" data-name="패스 7" d="M333.15,304.293c0-6.873-4.925-14.506-17.017-14.506H291.5v.619c2.736.731,3.719,2.631,3.746,5.049v50.4h10.078V319.441h5.141l13.821,22.895a7.51,7.51,0,0,0,6.46,3.517h7.571L321,318.395C327.678,316.4,333.15,311.568,333.15,304.293Zm-27.822-11.182h6.519c6.722,0,11.653,4.467,11.653,11.1,0,7.533-4.49,12.086-12.012,12.086h-6.16Z" fill="#3d3d3d"/>
      <path id="패스_8" data-name="패스 8" d="M191.744,289.775H168.365v.631c2.768.737,3.751,2.686,3.751,5.157v50.289h10.071V319.568H189.5c9.4,0,19.263-5.535,19.263-15.308C208.767,297.391,203.848,289.775,191.744,289.775Zm-4.63,26.493h-4.927V293.084h5.282c6.727,0,11.642,4.473,11.642,11.1C199.111,311.713,194.635,316.268,187.114,316.268Z" fill="#3d3d3d"/>
    </g>
    <g id="그룹_2" data-name="그룹 2" transform="translate(-5435.6 -1795.285)">
      <path id="패스_9" data-name="패스 9" d="M353.159,196.2V172.458a31.041,31.041,0,0,1-16.581-7.667c-6.543-6.015-9.721-14.618-8.957-24.226a31.236,31.236,0,0,1,10.643-20.9c7.236-6.4,15.9-9.381,27.264-9.381,24.488,0,44.408,19.349,44.408,43.138a42.271,42.271,0,0,1-12.488,29.99c-8.69,8.763-20.735,13.392-34.835,13.392h0C358.422,196.806,353.936,196.259,353.159,196.2Zm10.963-65.141c13.276.569,21.561,8.713,21.189,20.843-.342,10.917-8.525,19-20.852,20.6-1.27.163-2.546.271-3.8.328v16.727c.691.024,1.373.036,2.037.036,11.994,0,22.158-3.859,29.406-11.168a35.221,35.221,0,0,0,10.423-25.006c0-19.82-16.594-35.945-37-35.945-.193,0-.389,0-.591.006-19.218.3-28.941,12.465-29.833,23.645-.585,7.368,1.77,13.89,6.632,18.365a22.963,22.963,0,0,0,11.423,5.558V131.273A92.7,92.7,0,0,1,364.122,131.063Zm-3.452,7.207v27.26c.917-.051,1.861-.135,2.792-.256,6.757-.875,14.075-4.9,14.342-13.586.249-8.108-4.852-12.967-14-13.334C362.722,138.31,361.743,138.283,360.67,138.27Z" fill="#3d3d3d"/>
    </g>
  </g>
</svg>
