<svg xmlns="http://www.w3.org/2000/svg" width="229.912" height="34.65" viewBox="0 0 229.912 34.65">
  <g id="logo" transform="translate(5300.856 1512)">
    <g id="그룹_1" data-name="그룹 1" transform="translate(-5254.058 -1506.393)">
      <path id="패스_1" data-name="패스 1" d="M539.739,297.33c-2.369-1.539-2.832-2.275-2.781-3.654.049-1.332,1.2-2.8,3.364-3.147a6.309,6.309,0,0,1,5.357,1.71v-2.47a13.108,13.108,0,0,0-7.42-.4,6.564,6.564,0,0,0-4.705,3.67,5.1,5.1,0,0,0,.642,5.031c1.315,1.514,4.259,3.383,5.923,4.465s3.275,2.3,3.2,4.6c-.062,1.781-1.845,3.795-5.332,3.35a7.5,7.5,0,0,1-5.051-2.976v2.981c2.741,1.729,7.815,2.6,11.351.207a5.922,5.922,0,0,0,2.4-7.527C545.689,300.949,542.1,298.87,539.739,297.33Z" transform="translate(-386.93 -289.012)" fill="#fff"/>
      <path id="패스_2" data-name="패스 2" d="M227.818,289.775v.253c1.375.229,1.109,1.479.815,2.18L220.7,312.233h1.989l3.228-8.356h8.555l2.666,6.962a2.041,2.041,0,0,0,2.135,1.394h2.718l-8.837-22.458Zm-1.434,12.775,3.8-9.956,3.787,9.956Z" transform="translate(-199.738 -289.469)" fill="#fff"/>
      <path id="패스_3" data-name="패스 3" d="M357.561,289.775v.253c1.37.229,1.11,1.479.816,2.18l-7.946,20.025h2l3.223-8.356h8.556l2.662,6.962a2.048,2.048,0,0,0,2.137,1.394h2.718l-8.838-22.458Zm-1.44,12.775,3.807-9.956,3.787,9.956Z" transform="translate(-277.518 -289.469)" fill="#fff"/>
      <path id="패스_4" data-name="패스 4" d="M495.887,290.028a1.907,1.907,0,0,1,1.5,2.065v20.14h4.037V289.775h-5.537Z" transform="translate(-364.721 -289.469)" fill="#fff"/>
      <path id="패스_5" data-name="패스 5" d="M592.186,310.8v-9.677h8.749v-1.433h-8.749v-8.582h9.127v-1.332H586.649v.253a1.911,1.911,0,0,1,1.5,2.065v20.14l14.1,0V310.8Z" transform="translate(-419.134 -289.469)" fill="#fff"/>
      <path id="패스_6" data-name="패스 6" d="M430.451,289.775H420.293v.253a1.875,1.875,0,0,1,1.5,1.928c0,.016.006.03.006.045v20.232h7.654c10.668,0,12.968-7.293,12.968-11.583C442.416,294.151,436.96,289.775,430.451,289.775Zm-.878,21.175h-3.744V291.1H429.1c5.932,0,9.377,3.715,9.377,9.9S434.119,310.95,429.573,310.95Z" transform="translate(-319.401 -289.469)" fill="#fff"/>
      <path id="패스_7" data-name="패스 7" d="M308.182,295.6c0-2.753-1.972-5.809-6.815-5.809H291.5v.248a1.9,1.9,0,0,1,1.5,2.022V312.24h4.036V301.663H299.1l5.535,9.169a3.008,3.008,0,0,0,2.587,1.409h3.032l-6.938-11C305.991,300.445,308.182,298.51,308.182,295.6Zm-11.142-4.478h2.611a4.371,4.371,0,0,1,4.667,4.444c0,3.017-1.8,4.84-4.811,4.84H297.04Z" transform="translate(-242.189 -289.477)" fill="#fff"/>
      <path id="패스_8" data-name="패스 8" d="M177.728,289.775h-9.363v.253a1.91,1.91,0,0,1,1.5,2.065v20.14H173.9V301.707h2.93c3.766,0,7.714-2.217,7.714-6.131C184.545,292.825,182.575,289.775,177.728,289.775Zm-1.854,10.61H173.9V291.1h2.115a4.368,4.368,0,0,1,4.662,4.444C180.678,298.561,178.886,300.385,175.874,300.385Z" transform="translate(-168.365 -289.469)" fill="#fff"/>
    </g>
    <g id="그룹_2" data-name="그룹 2" transform="translate(-5300.856 -1512)">
      <path id="패스_9" data-name="패스 9" d="M337.781,144.694v-9.51a12.431,12.431,0,0,1-6.641-3.071,11.6,11.6,0,0,1-3.587-9.7,12.51,12.51,0,0,1,4.262-8.369c2.9-2.563,6.367-3.757,10.919-3.757a17.555,17.555,0,0,1,17.785,17.276,16.929,16.929,0,0,1-5,12.011c-3.48,3.509-8.3,5.363-13.951,5.363h0C339.889,144.935,338.092,144.716,337.781,144.694Zm4.39-26.088c5.317.228,8.635,3.49,8.486,8.347-.137,4.372-3.414,7.608-8.351,8.25-.509.065-1.02.109-1.52.131v6.7c.277.01.55.014.816.014a16.118,16.118,0,0,0,11.777-4.473,14.105,14.105,0,0,0,4.174-10.015,14.627,14.627,0,0,0-14.818-14.4l-.237,0c-7.7.119-11.591,4.992-11.947,9.469a8.785,8.785,0,0,0,2.656,7.355,9.2,9.2,0,0,0,4.575,2.226V118.69A37.123,37.123,0,0,1,342.172,118.606Zm-1.383,2.886v10.917c.367-.02.745-.054,1.118-.1,2.706-.35,5.637-1.963,5.744-5.441.1-3.247-1.943-5.193-5.606-5.34C341.611,121.508,341.219,121.5,340.789,121.492Z" transform="translate(-327.509 -110.285)" fill="#fff"/>
    </g>
  </g>
</svg>
