<svg id="sns_insta" xmlns="http://www.w3.org/2000/svg" width="27.173" height="27.157" viewBox="0 0 27.173 27.157">
  <g id="그룹_12" data-name="그룹 12" transform="translate(0 0)">
    <path id="SVGID_1_" d="M14.257,9.093a9.769,9.769,0,0,0-3.3.632A6.846,6.846,0,0,0,8.567,11.3,6.517,6.517,0,0,0,7.009,13.7,10.164,10.164,0,0,0,6.377,17c-.062,1.45-.077,1.912-.077,5.6.015,3.686.031,4.148.093,5.6a9.59,9.59,0,0,0,.632,3.285A6.764,6.764,0,0,0,8.6,33.89,6.517,6.517,0,0,0,11,35.448a10.164,10.164,0,0,0,3.3.632c1.45.062,1.912.077,5.6.077,3.686-.015,4.148-.015,5.6-.093a9.769,9.769,0,0,0,3.3-.632,6.764,6.764,0,0,0,2.406-1.573,6.517,6.517,0,0,0,1.558-2.406,10.164,10.164,0,0,0,.632-3.3c.062-1.45.077-1.912.077-5.6-.015-3.686-.015-4.148-.093-5.6a9.769,9.769,0,0,0-.632-3.3,6.764,6.764,0,0,0-1.573-2.406,6.517,6.517,0,0,0-2.406-1.558,10.164,10.164,0,0,0-3.3-.632C24,9.015,23.541,9,19.855,9c-3.686.015-4.148.031-5.6.093m.154,24.536a7.531,7.531,0,0,1-2.514-.463A4.535,4.535,0,0,1,9.323,30.59a7.514,7.514,0,0,1-.478-2.514c-.062-1.434-.077-1.866-.093-5.49,0-3.624,0-4.056.062-5.49a7.531,7.531,0,0,1,.463-2.514,4.535,4.535,0,0,1,2.575-2.575,7.94,7.94,0,0,1,2.514-.478c1.434-.062,1.866-.077,5.475-.093,3.624,0,4.056,0,5.49.062a7.531,7.531,0,0,1,2.514.463A4.082,4.082,0,0,1,29.4,12.979a4.2,4.2,0,0,1,1.018,1.558A7.94,7.94,0,0,1,30.9,17.05c.062,1.434.077,1.866.093,5.475.015,3.624,0,4.056-.062,5.49a7.742,7.742,0,0,1-.463,2.529,4.535,4.535,0,0,1-2.575,2.575,7.94,7.94,0,0,1-2.514.478c-1.434.062-1.866.077-5.49.093-3.609.015-4.04,0-5.475-.062M25.484,15.323A1.627,1.627,0,1,0,27.1,13.688a1.632,1.632,0,0,0-1.619,1.635M12.916,22.586A6.971,6.971,0,1,0,19.871,15.6a6.963,6.963,0,0,0-6.955,6.986m2.437,0A4.526,4.526,0,1,1,19.886,27.1a4.538,4.538,0,0,1-4.534-4.519" transform="translate(-6.3 -9)" fill="#888"/>
  </g>
</svg>
