<svg xmlns="http://www.w3.org/2000/svg" width="31.751" height="22.227" viewBox="0 0 31.751 22.227">
  <path id="sns_youtube" d="M162.7,236.721a3.978,3.978,0,0,0-2.807-2.807c-2.477-.665-12.405-.665-12.405-.665s-9.93,0-12.405.665a3.98,3.98,0,0,0-2.808,2.807,44.4,44.4,0,0,0,0,15.286,3.974,3.974,0,0,0,2.808,2.807c2.477.663,12.405.663,12.405.663s9.928,0,12.405-.663a3.978,3.978,0,0,0,2.807-2.807,44.4,44.4,0,0,0,0-15.286Zm-18.388,12.405V239.6l8.249,4.764Z" transform="translate(-131.61 -233.25)" fill="#888"/>
</svg>
