<svg xmlns="http://www.w3.org/2000/svg" width="407.425" height="82.824" viewBox="0 0 407.425 82.824">
  <g id="logo" transform="translate(-11659 2510)">
    <g id="layer1" transform="translate(11345.997 -3138.069)">
      <path id="path178" d="M421.608,676.015c-3.978-1.768-6.345-2.45-8.675-2.45-2.45,0-4.017.885-4.017,2.25,0,4.138,13.938,2.972,13.938,12.532,0,5.263-4.418,8.315-10.522,8.315a18.57,18.57,0,0,1-9.883-2.653V688.1c3.938,2.612,6.348,3.535,9.36,3.535,2.61,0,4.017-.922,4.017-2.53,0-4.5-13.94-2.852-13.94-12.693,0-4.74,4.1-7.872,10.445-7.872a22.4,22.4,0,0,1,9.277,2.13v5.34"/>
      <path id="path180" d="M442.728,692.765c-.6,0-.965-.362-.965-1.285v-8.435c0-4.057-3.172-5.622-7.832-5.622a15.057,15.057,0,0,0-8.033,2.247v4.74a10.11,10.11,0,0,1,6.828-3.093c2.53,0,3.335,1.365,3.212,3.093-7.75,2.41-11.005,3.295-11.005,7.713,0,2.33,2.21,4.54,5.182,4.54a10.344,10.344,0,0,0,6.105-2.09c.4,1.487,1.325,2.09,3.253,2.09a12.142,12.142,0,0,0,5.462-1.687V691.72c-1.365.965-1.807,1.045-2.207,1.045Zm-6.79-.963a4.927,4.927,0,0,1-3.212,1.405,1.93,1.93,0,0,1-1.888-1.968c0-1.847,1.647-2.653,5.1-3.9v4.46"/>
      <path id="path182" d="M444.2,677.782h6.225l3.935,10.2,3.978-10.2h6.185l-8.515,18.88H452.76l-8.555-18.88"/>
      <path id="path184" d="M471.308,687.985h13.3c.283-6.747-4.177-10.562-9.56-10.562a9.343,9.343,0,0,0-9.76,9.68c0,5.782,4.217,9.56,10.725,9.56a13.418,13.418,0,0,0,8.275-2.45v-3.657c-2.733,1.97-4.54,2.653-6.87,2.653-3.655,0-5.9-1.927-6.105-5.222Zm4.138-7.11c2.25,0,3.775,1.528,4.017,4.057h-8.035c.242-2.57,1.728-4.057,4.017-4.057"/>
      <path id="path186" d="M511.218,681.76H504.47v7.633a2.691,2.691,0,0,0,2.853,2.97,8.1,8.1,0,0,0,3.895-1.083V695.5a13.188,13.188,0,0,1-5.383,1.165c-3.855,0-7.19-1.768-7.19-6.95V681.76H496v-1.125l7.753-8.677h.723v5.825h6.747v3.977"/>
      <path id="path188" d="M519.323,680.515h.08a7.158,7.158,0,0,1,5.865-3.093c3.372,0,6.787,2.047,6.787,7.07V696.3H526.23V685.735c0-2.77-1.205-4.055-3.013-4.055-1.365,0-2.53.843-3.9,2.813V696.3H513.5V668.907h5.825v11.607"/>
      <path id="path190" d="M541.125,687.985H554.42c.28-6.747-4.177-10.562-9.56-10.562a9.342,9.342,0,0,0-9.76,9.68c0,5.782,4.218,9.56,10.722,9.56a13.411,13.411,0,0,0,8.275-2.45v-3.657c-2.73,1.97-4.537,2.653-6.867,2.653-3.655,0-5.905-1.927-6.1-5.222Zm4.135-7.11c2.25,0,3.778,1.528,4.018,4.057h-8.032c.24-2.57,1.727-4.057,4.015-4.057"/>
      <path id="path192" d="M593.928,693.93a21.27,21.27,0,0,1-10.765,2.732c-10.643,0-15.945-6.91-15.945-13.98,0-7.31,5.985-14.138,16.468-14.138a19.315,19.315,0,0,1,9.922,2.41v6.1a19.116,19.116,0,0,0-9.44-2.812c-5.825,0-9.922,3.455-9.922,8.315,0,4.9,4.057,8.4,9.763,8.4,3.575,0,5.985-1.125,9.92-3.013v5.985"/>
      <path id="path194" d="M603.81,680.515h.08a7.158,7.158,0,0,1,5.865-3.093c3.372,0,6.787,2.047,6.787,7.07V696.3h-5.825V685.735c0-2.77-1.205-4.055-3.013-4.055-1.365,0-2.53.843-3.9,2.813V696.3h-5.825V668.907h5.825v11.607"/>
      <path id="path196" d="M620.63,696.3h5.824V677.783H620.63Z"/>
      <path id="path198" d="M626.735,671.757a3.213,3.213,0,1,1-3.213-3.213,3.223,3.223,0,0,1,3.213,3.213"/>
      <path id="path200" d="M630.713,696.3h5.824V668.907h-5.824Z"/>
      <path id="path202" d="M653.488,668.907v9.68a10.764,10.764,0,0,0-4.82-1.165c-5.3,0-9,3.935-9,9.6,0,5.542,3.7,9.64,8.675,9.64a7.6,7.6,0,0,0,5.143-1.847V696.3h5.825V668.907Zm0,22.333a4.885,4.885,0,0,1-3.455,1.525c-2.73,0-4.458-2.25-4.458-5.622,0-3.7,1.727-5.825,4.657-5.825a6.3,6.3,0,0,1,3.255,1.085v8.838"/>
      <path id="path204" d="M669.265,683.085h.08c1.725-3.855,3.655-5.662,5.9-5.662,1.165,0,2.17.44,3.857,1.685L677.5,684.25a6.7,6.7,0,0,0-3.455-1.365c-2.128,0-3.492,2.008-4.778,5.422V696.3H663.44V677.783h5.825v5.3"/>
      <path id="path206" d="M685.573,687.985h13.295c.28-6.747-4.177-10.562-9.56-10.562a9.342,9.342,0,0,0-9.76,9.68c0,5.782,4.218,9.56,10.725,9.56a13.408,13.408,0,0,0,8.273-2.45v-3.657c-2.73,1.97-4.537,2.653-6.867,2.653-3.655,0-5.905-1.927-6.1-5.222Zm4.138-7.11c2.247,0,3.775,1.528,4.015,4.057h-8.032c.242-2.57,1.727-4.057,4.018-4.057"/>
      <path id="path208" d="M707.655,680.432a7.459,7.459,0,0,1,6.025-3.01c2.893,0,6.747,1.645,6.747,7.11V696.3H714.6V685.012c0-2.61-1.245-3.7-2.89-3.7-1.448,0-2.532.763-4.057,3.052V696.3H701.83V677.782h5.825v2.65"/>
      <path id="path210" d="M386.643,650.655c3.693-3.8,5.332-5.555,5.075-6.595a3.489,3.489,0,0,0-2.11-2.042c-1.253-.578-3-.922-3.922-.463a13.319,13.319,0,0,0-2.07,1.89l-1.165,1.143,0,0c-.64-.747-1.323-1.5-2-2.172a36.805,36.805,0,0,0-17.923-9.86,11.287,11.287,0,0,0-9.7-4.445,10.929,10.929,0,0,0-7.783,4.525,41.289,41.289,0,0,0-19.17,10.378v0a8.523,8.523,0,0,0-5.193.593,2.6,2.6,0,0,0-1.617,1.578c-.12.472.025,1.235,1.793,3.555v.006a40.673,40.673,0,0,0-7.8,25.782,37.151,37.151,0,0,0,10.763,24.54,36.626,36.626,0,0,0,7.652,5.865h0a45.294,45.294,0,0,0,42.223,1.4l.025-.01a2.3,2.3,0,0,0,1.105-2.955l-.132-.365c-1.793-4.9-7.253-19.807-2.753-32.76,1.885-5.42,6.625-11.005,10.688-15.362h0a36.13,36.13,0,0,1,4.3,21.19,33.012,33.012,0,0,1-7.837,18.143v0a.773.773,0,0,0-.212.535,1.307,1.307,0,0,0,.04.25l.345.98a.782.782,0,0,0,1.3.258l.025,0c11.517-12.708,14.045-31.115,6.087-45.578v0Zm-48.96,27.995a74.793,74.793,0,0,0-2.47,21.943v0a37.391,37.391,0,0,1-7.28-5.655,36.734,36.734,0,0,1-10.587-21.945,34.049,34.049,0,0,1,5.182-22.177v0h0l0,0c1.318,1.578,2.918,3.4,4.592,5.307,4.1,4.662,8.753,9.95,10.935,13.635,1.265,2.13.65,4.677-.37,8.9Zm40.505-30.1c-8.668,7.595-16.617,11.487-23.608,11.535-5.38.038-10.94-1.948-16.522-5.9a64.936,64.936,0,0,1-10.17-9.278l-.212-.227h0v0a33.129,33.129,0,0,1,15.265-8.073s0,0,0,0v0s0,0,0,0a16.637,16.637,0,0,0-.81,6.888A15.668,15.668,0,0,0,347.4,654.14a10.5,10.5,0,0,0,15.29-1.337,15.65,15.65,0,0,0,3.337-11.4,17.29,17.29,0,0,0-.362-2.328v0a36.986,36.986,0,0,1,10.663,7.46c.633.635,1.26,1.307,1.865,2.01h0" fill="#ed1b2d"/>
    </g>
  </g>
</svg>
