<svg xmlns="http://www.w3.org/2000/svg" width="219.5" height="44.621" viewBox="0 0 219.5 44.621">
  <g id="logo_w" transform="translate(-313.003 -628.069)">
    <path id="path178" d="M412.511,672.569a11.434,11.434,0,0,0-4.674-1.32c-1.32,0-2.164.477-2.164,1.212,0,2.229,7.509,1.6,7.509,6.752,0,2.835-2.38,4.48-5.669,4.48a10.006,10.006,0,0,1-5.324-1.429v-3.181c2.121,1.407,3.42,1.9,5.043,1.9,1.406,0,2.164-.5,2.164-1.363,0-2.424-7.51-1.537-7.51-6.838,0-2.554,2.208-4.241,5.627-4.241a12.066,12.066,0,0,1,5,1.148v2.877" transform="translate(-40.997 -18.669)" fill="#fff"/>
    <path id="path180" d="M434.52,685.688c-.325,0-.52-.2-.52-.692v-4.544c0-2.186-1.709-3.029-4.22-3.029a8.112,8.112,0,0,0-4.327,1.211v2.554a5.447,5.447,0,0,1,3.678-1.666c1.363,0,1.8.735,1.731,1.666-4.175,1.3-5.929,1.775-5.929,4.155a2.662,2.662,0,0,0,2.792,2.446,5.573,5.573,0,0,0,3.289-1.126c.217.8.714,1.126,1.752,1.126a6.541,6.541,0,0,0,2.943-.909v-1.754c-.735.52-.974.563-1.189.563Zm-3.658-.518a2.655,2.655,0,0,1-1.731.757,1.04,1.04,0,0,1-1.017-1.06c0-1,.888-1.429,2.748-2.1v2.4" transform="translate(-51.628 -22.764)" fill="#fff"/>
    <path id="path182" d="M444.2,677.782h3.354l2.12,5.5,2.143-5.5h3.332l-4.587,10.172h-1.752L444.2,677.782" transform="translate(-60.517 -22.93)" fill="#fff"/>
    <path id="path184" d="M468.529,683.113h7.163c.152-3.635-2.251-5.691-5.15-5.691a5.034,5.034,0,0,0-5.258,5.215c0,3.115,2.272,5.15,5.778,5.15a7.229,7.229,0,0,0,4.458-1.32V684.5a5.859,5.859,0,0,1-3.7,1.429c-1.969,0-3.181-1.039-3.289-2.814Zm2.229-3.83a2.147,2.147,0,0,1,2.164,2.186h-4.329a2.121,2.121,0,0,1,2.164-2.186" transform="translate(-70.239 -22.764)" fill="#fff"/>
    <path id="path186" d="M504.2,677.239h-3.635v4.112a1.45,1.45,0,0,0,1.537,1.6,4.363,4.363,0,0,0,2.1-.583v2.272a7.1,7.1,0,0,1-2.9.628c-2.077,0-3.874-.952-3.874-3.744v-4.284H496v-.606l4.177-4.675h.389V675.1H504.2v2.143" transform="translate(-84.405 -20.243)" fill="#fff"/>
    <path id="path188" d="M516.636,675.161h.043a3.856,3.856,0,0,1,3.16-1.666A3.5,3.5,0,0,1,523.5,677.3v6.361h-3.138v-5.692c0-1.492-.649-2.185-1.623-2.185-.735,0-1.363.454-2.1,1.515v6.361H513.5V668.907h3.138v6.253" transform="translate(-92.478 -18.837)" fill="#fff"/>
    <path id="path190" d="M538.346,683.113h7.163c.151-3.635-2.251-5.691-5.15-5.691a5.033,5.033,0,0,0-5.258,5.215c0,3.115,2.272,5.15,5.777,5.15a7.225,7.225,0,0,0,4.458-1.32V684.5a5.852,5.852,0,0,1-3.7,1.429c-1.969,0-3.181-1.039-3.289-2.814Zm2.228-3.83a2.146,2.146,0,0,1,2.164,2.186h-4.327a2.12,2.12,0,0,1,2.163-2.186" transform="translate(-102.442 -22.764)" fill="#fff"/>
    <path id="path192" d="M581.608,682.221a11.459,11.459,0,0,1-5.8,1.472c-5.734,0-8.59-3.723-8.59-7.532,0-3.938,3.224-7.617,8.872-7.617a10.406,10.406,0,0,1,5.346,1.3v3.289a10.3,10.3,0,0,0-5.086-1.515c-3.138,0-5.346,1.861-5.346,4.48,0,2.64,2.186,4.523,5.26,4.523,1.926,0,3.224-.606,5.344-1.623v3.224" transform="translate(-117.257 -18.669)" fill="#fff"/>
    <path id="path194" d="M601.123,675.161h.043a3.856,3.856,0,0,1,3.16-1.666,3.5,3.5,0,0,1,3.657,3.809v6.361h-3.138v-5.692c0-1.492-.649-2.185-1.623-2.185-.735,0-1.363.454-2.1,1.515v6.361h-3.138V668.907h3.138v6.253" transform="translate(-131.448 -18.837)" fill="#fff"/>
    <path id="path196" d="M620.63,687.759h3.138v-9.976H620.63Z" transform="translate(-141.893 -22.93)" fill="#fff"/>
    <path id="path198" d="M623.771,670.275a1.731,1.731,0,1,1-1.731-1.731,1.737,1.737,0,0,1,1.731,1.731" transform="translate(-141.745 -18.669)" fill="#fff"/>
    <path id="path200" d="M630.713,683.665h3.138V668.907h-3.138Z" transform="translate(-146.544 -18.837)" fill="#fff"/>
    <path id="path202" d="M647.115,668.907v5.215a5.8,5.8,0,0,0-2.6-.628c-2.857,0-4.847,2.12-4.847,5.172,0,2.986,1.991,5.194,4.674,5.194a4.093,4.093,0,0,0,2.771-1v.8h3.138V668.907Zm0,12.032a2.632,2.632,0,0,1-1.861.822c-1.471,0-2.4-1.212-2.4-3.029,0-1.991.931-3.138,2.509-3.138a3.394,3.394,0,0,1,1.754.585v4.761" transform="translate(-150.675 -18.836)" fill="#fff"/>
    <path id="path204" d="M666.578,680.473h.043c.929-2.077,1.969-3.051,3.18-3.051a3.412,3.412,0,0,1,2.078.908l-.866,2.771a3.609,3.609,0,0,0-1.861-.735c-1.146,0-1.882,1.082-2.574,2.921v4.306H663.44v-9.976h3.138v2.857" transform="translate(-161.639 -22.764)" fill="#fff"/>
    <path id="path206" d="M682.794,683.113h7.163c.151-3.635-2.251-5.691-5.151-5.691a5.033,5.033,0,0,0-5.258,5.215c0,3.115,2.272,5.15,5.778,5.15a7.224,7.224,0,0,0,4.457-1.32V684.5a5.853,5.853,0,0,1-3.7,1.429c-1.969,0-3.181-1.039-3.289-2.814Zm2.229-3.83a2.146,2.146,0,0,1,2.163,2.186h-4.328a2.121,2.121,0,0,1,2.164-2.186" transform="translate(-169.069 -22.764)" fill="#fff"/>
    <path id="path208" d="M704.968,679.044a4.018,4.018,0,0,1,3.246-1.622,3.492,3.492,0,0,1,3.635,3.831v6.34h-3.138v-6.081c0-1.406-.671-1.991-1.557-1.991-.78,0-1.365.411-2.186,1.645v6.427H701.83v-9.976h3.138v1.428" transform="translate(-179.347 -22.764)" fill="#fff"/>
    <path id="path210" d="M352.676,640.237c1.989-2.046,2.873-2.993,2.734-3.553a1.88,1.88,0,0,0-1.137-1.1,2.906,2.906,0,0,0-2.113-.249,7.181,7.181,0,0,0-1.115,1.018l-.628.616h0c-.345-.4-.713-.807-1.076-1.171a19.829,19.829,0,0,0-9.656-5.312,6.081,6.081,0,0,0-5.229-2.395,5.888,5.888,0,0,0-4.193,2.438,22.244,22.244,0,0,0-10.328,5.591v0a4.592,4.592,0,0,0-2.8.319,1.4,1.4,0,0,0-.871.85c-.065.255.013.665.966,1.915v0a21.912,21.912,0,0,0-4.2,13.89,20.015,20.015,0,0,0,5.8,13.221,19.736,19.736,0,0,0,4.123,3.16h0a24.4,24.4,0,0,0,22.747.757l.013-.005a1.236,1.236,0,0,0,.6-1.592l-.071-.2c-.966-2.638-3.907-10.671-1.483-17.649,1.016-2.92,3.569-5.929,5.758-8.277h0a19.465,19.465,0,0,1,2.317,11.416A17.785,17.785,0,0,1,348.6,663.7h0a.416.416,0,0,0-.115.288.7.7,0,0,0,.022.135l.186.528a.421.421,0,0,0,.7.139h.013a21.407,21.407,0,0,0,3.28-24.555h0ZM326.3,655.32a40.3,40.3,0,0,0-1.331,11.822v0a20.145,20.145,0,0,1-3.922-3.047,19.791,19.791,0,0,1-5.7-11.823,18.344,18.344,0,0,1,2.792-11.948h0c.71.85,1.572,1.833,2.474,2.859a61.562,61.562,0,0,1,5.891,7.346c.681,1.148.35,2.52-.2,4.794ZM348.121,639.1c-4.67,4.092-8.953,6.189-12.719,6.214a15.293,15.293,0,0,1-8.9-3.179,34.983,34.983,0,0,1-5.479-5l-.115-.123h0a17.848,17.848,0,0,1,8.224-4.349s0,0,0,0h0s0,0,0,0a8.963,8.963,0,0,0-.436,3.711,8.441,8.441,0,0,0,2.838,5.736,5.659,5.659,0,0,0,8.238-.721,8.432,8.432,0,0,0,1.8-6.142,9.314,9.314,0,0,0-.2-1.254h0a19.927,19.927,0,0,1,5.744,4.019c.341.342.679.7,1,1.083h0" transform="translate(0)" fill="#ed1b2d"/>
  </g>
</svg>
