<svg xmlns="http://www.w3.org/2000/svg" width="432.882" height="392.597" viewBox="0 0 432.882 392.597">
  <g id="circle_txt" transform="translate(-400.09 174.171) rotate(-30)">
    <g id="그룹_4" data-name="그룹 4" transform="translate(321.196 114.129)">
      <path id="패스_23" data-name="패스 23" d="M440.028,171.509l9.346-54.234a19.008,19.008,0,0,0,2.528-.475q1.6-.384,3.3-.839,1.774-.471,3.31-.96a22.194,22.194,0,0,0,2.383-.872l.512,1.925q-4,1.061-5.081,3.1t-.158,5.509l10.559,36.419a21.9,21.9,0,0,0,1.516,3.915,4.877,4.877,0,0,0,1.993,2.124,5.275,5.275,0,0,0,2.925.57,22.846,22.846,0,0,0,4.613-.831l.493,1.849-4.812,1.281q-3.035.805-6.29,1.673l-6.216,1.654-4.588,1.221-.493-1.849a20.944,20.944,0,0,0,3.945-1.407,4.979,4.979,0,0,0,2.154-1.879,5.212,5.212,0,0,0,.6-2.814,19.335,19.335,0,0,0-.723-4.206l-10.834-38.644-9.534,55.316-1.11.3-35.015-41.958,9.261,37.793q1.142,4.295,2.789,5.717t5.461.569l.491,1.851q-1.774.471-4.154,1.064t-4.894,1.262l-4.885,1.3q-2.371.63-4.2,1.2l-.491-1.851a31.772,31.772,0,0,0,4.082-1.483,6.84,6.84,0,0,0,2.554-1.867,5.527,5.527,0,0,0,1.015-2.885,16.08,16.08,0,0,0-.418-4.406L403.2,138.831q-.983-3.7-3.173-4.782a8.039,8.039,0,0,0-5.67-.156l-.51-1.925q1.222-.166,2.75-.534t3.007-.76q1.481-.4,2.8-.787a15.12,15.12,0,0,0,2.1-.755Z" transform="translate(-279.107 -114.129)" fill="rgba(204,204,204,0.6)"/>
      <path id="패스_24" data-name="패스 24" d="M486.609,149.93a20.132,20.132,0,0,1-6.9,13.083,18.088,18.088,0,0,1-6.148,3.535,16.091,16.091,0,0,1-7.06.733,20.43,20.43,0,0,1-7.08-2.124,17.389,17.389,0,0,1-5.573-4.493,17.759,17.759,0,0,1-3.424-6.444,20.03,20.03,0,0,1-.61-8.126,21.258,21.258,0,0,1,2.19-7.341,19.852,19.852,0,0,1,4.4-5.779,19.1,19.1,0,0,1,6.181-3.492,16.508,16.508,0,0,1,7.331-.739,20.676,20.676,0,0,1,7.265,2.183,17.063,17.063,0,0,1,5.532,4.528,17.9,17.9,0,0,1,3.309,6.431A20.3,20.3,0,0,1,486.609,149.93Zm-5.725.19a28.444,28.444,0,0,0,0-6.05,19.511,19.511,0,0,0-1.548-6,14.117,14.117,0,0,0-3.569-4.841,10.415,10.415,0,0,0-5.851-2.405,10.71,10.71,0,0,0-6,.853,12.049,12.049,0,0,0-4.288,3.44,18.143,18.143,0,0,0-2.707,5.123,25.288,25.288,0,0,0-1.281,11.493,20.564,20.564,0,0,0,1.548,6,14.062,14.062,0,0,0,3.484,4.91,10.246,10.246,0,0,0,5.919,2.491,10.515,10.515,0,0,0,5.957-.859,11.9,11.9,0,0,0,4.258-3.52,16.15,16.15,0,0,0,2.775-5.038A26.555,26.555,0,0,0,480.884,150.12Z" transform="translate(-246.776 -105.733)" fill="rgba(204,204,204,0.6)"/>
      <path id="패스_25" data-name="패스 25" d="M493.331,142.4a31.578,31.578,0,0,1,3.465-1.982q1.869-.922,3.651-1.589a19.658,19.658,0,0,1,3.443-.772,6.2,6.2,0,0,1,2.841.235,5.5,5.5,0,0,1,2.712,1.977,3.04,3.04,0,0,1,.417,2.95,3.493,3.493,0,0,1-1.98,2.265,3.178,3.178,0,0,1-3.587-.54,7.772,7.772,0,0,1-.793-.973,7.9,7.9,0,0,0-.889-1.046,4.1,4.1,0,0,0-1.521-.864,4.367,4.367,0,0,0-2.036.009,12.408,12.408,0,0,0-2.825.869,10.232,10.232,0,0,0-2.781,1.654,5.567,5.567,0,0,0-1.753,2.426l-5.423,15.3a14.042,14.042,0,0,0-.758,2.941,2.806,2.806,0,0,0,.518,2.093,6.225,6.225,0,0,0,2.173,1.665,35.008,35.008,0,0,0,4.182,1.725l-.64,1.805q-1.637-.659-4.076-1.567t-5.04-1.826q-2.6-.922-5.066-1.756t-4.152-1.349l.638-1.805q3.684,1.305,5.1.75t2.721-4.236L487.88,143.8a28.18,28.18,0,0,0,.957-3.155,4.457,4.457,0,0,0,.062-2.009,2.23,2.23,0,0,0-.993-1.327,10.892,10.892,0,0,0-2.3-1.061l.537-1.516a22.5,22.5,0,0,0,4.607.415,11.787,11.787,0,0,0,4.365-.973l1.3.461q-.907,1.871-1.685,3.953T493.331,142.4Z" transform="translate(-233.014 -102.515)" fill="rgba(204,204,204,0.6)"/>
      <path id="패스_26" data-name="패스 26" d="M504.217,153.069a12.493,12.493,0,0,0-1.455,1.984q-.668,1.12-1.6,2.972a16.765,16.765,0,0,0-1.922,10.228,10.75,10.75,0,0,0,5.536,7.9,13.883,13.883,0,0,0,6.453,2.118,15.215,15.215,0,0,0,5.881-.812l.567,1.143a19.264,19.264,0,0,1-8.244,2.521,13.809,13.809,0,0,1-8.317-1.984,13.553,13.553,0,0,1-4.518-4.307,14.951,14.951,0,0,1-2.21-5.782,18.576,18.576,0,0,1,.155-6.6,21.017,21.017,0,0,1,2.675-6.786,28.278,28.278,0,0,1,5.491-6.8,20.055,20.055,0,0,1,6.128-3.831,14.351,14.351,0,0,1,6.388-.911,14.075,14.075,0,0,1,6,1.98,14.478,14.478,0,0,1,3.552,3.016,12.686,12.686,0,0,1,2.371,4.094,12.3,12.3,0,0,1,.5,4.984,13.946,13.946,0,0,1-1.876,5.524,2.963,2.963,0,0,1-.886,1.033,1.516,1.516,0,0,1-1.279-.1Zm15.324,6.306a3.632,3.632,0,0,0,1.927.66A1.779,1.779,0,0,0,522.8,159a6.775,6.775,0,0,0,.845-2.528,9.32,9.32,0,0,0-.052-2.975,9.073,9.073,0,0,0-1.252-2.979,7.753,7.753,0,0,0-2.631-2.465,9.326,9.326,0,0,0-7.409-1.263,13.587,13.587,0,0,0-6.625,4.293Z" transform="translate(-220.991 -96.784)" fill="rgba(204,204,204,0.6)"/>
      <path id="패스_27" data-name="패스 27" d="M530.03,189.477q-3.378,2.885-3.756,4.92a4.29,4.29,0,0,0,1.066,3.722,8.171,8.171,0,0,0,1.292,1.161,14.3,14.3,0,0,0,1.785,1.147q.986.566,1.826.959a5.894,5.894,0,0,0,1.428.493L533.3,203.1a19.629,19.629,0,0,1-5.8-1.189A11.037,11.037,0,0,1,523,198.7a7.141,7.141,0,0,1-1.974-5.262,7.563,7.563,0,0,1,3.007-5.087l19.511-16.659-3.482-4.078,1.107-.944a10.1,10.1,0,0,0,6.584,1.93,18.336,18.336,0,0,0,7.5-2.776l1.046,1.224-7.105,6.066,7.957,9.318-2.563,2.189-7.957-9.318Z" transform="translate(-205.441 -84.181)" fill="rgba(204,204,204,0.6)"/>
      <path id="패스_28" data-name="패스 28" d="M574.948,182a21.221,21.221,0,0,0,2.705-1.68,4.083,4.083,0,0,0,1.3-1.534,2.488,2.488,0,0,0-.073-1.745,18.918,18.918,0,0,0-1.121-2.4l1.347-.728a24.367,24.367,0,0,0,3.523,3.536,13.732,13.732,0,0,0,4.206,2.383l.656,1.213q-1.928.782-4.019,1.826t-3.708,1.917l-21.556,11.659q1.692.391,3.681,1.012a36.414,36.414,0,0,1,3.937,1.485,21.39,21.39,0,0,1,3.587,2.282,10.1,10.1,0,0,1,2.653,3.137,8.815,8.815,0,0,1,.434,8.209,14.125,14.125,0,0,1-6.472,6.548l-15.089,8.16q-1.552.839-2.506,1.485a3.513,3.513,0,0,0-1.306,1.447,2.858,2.858,0,0,0-.041,1.938,14.433,14.433,0,0,0,1.257,2.89l-1.683.911q-.512-.945-.965-1.786c-.3-.562-.58-1.123-.826-1.687-.291-.539-.584-1.107-.877-1.7s-.622-1.23-.987-1.9-.709-1.284-1.034-1.834-.635-1.093-.925-1.633-.6-1.083-.927-1.631-.659-1.139-1-1.767l1.685-.911a20.943,20.943,0,0,0,1.464,2.386,2.9,2.9,0,0,0,1.492,1.151,3.379,3.379,0,0,0,1.985-.115,17.887,17.887,0,0,0,2.971-1.346l10.915-5.9a37.093,37.093,0,0,0,5.221-3.3,9.813,9.813,0,0,0,2.728-3.086,4.847,4.847,0,0,0,.6-3.154,11.344,11.344,0,0,0-1.335-3.677,10.454,10.454,0,0,0-4.657-4.184,19.912,19.912,0,0,0-6.407-2.108l-16.1,8.707q-3.167,1.713-3.756,3.119t1.161,4.64l-1.685.911q-.545-1.012-.982-1.819c-.292-.54-.561-1.09-.807-1.654-.292-.539-.58-1.1-.859-1.668s-.592-1.175-.932-1.8q-.547-1.012-1.036-1.835c-.327-.55-.633-1.093-.925-1.631q-.474-.876-.962-1.7c-.328-.551-.66-1.139-1-1.767l1.684-.911q1.639,3.032,3.124,3.361t4.717-1.42Z" transform="translate(-201.448 -79.492)" fill="rgba(204,204,204,0.6)"/>
      <path id="패스_29" data-name="패스 29" d="M550.741,248.337a29.664,29.664,0,0,1-3.675-2.762,6.611,6.611,0,0,1-2.17-3.37,3.39,3.39,0,0,1,.932-3.266,9.792,9.792,0,0,1,4.458-2.4,23.824,23.824,0,0,1-6.148-4.956,15.364,15.364,0,0,1-3.466-6.56,8.123,8.123,0,0,1,.8-6.191,7.078,7.078,0,0,1,5.01-3.52,7.825,7.825,0,0,1,5.134.513,14.376,14.376,0,0,1,4.547,3.574,42.643,42.643,0,0,1,4.36,5.869q2.2,3.48,4.708,7.6l5.131-1.262a9.285,9.285,0,0,0,5.016-2.851q1.746-2.047.666-6.434a9.231,9.231,0,0,0-3.184-5.092,5.776,5.776,0,0,0-5.038-1.4,4.046,4.046,0,0,1-2.776-.068,2.279,2.279,0,0,1-1.248-1.546,1.59,1.59,0,0,1,.4-1.559,3.6,3.6,0,0,1,1.815-.959,5.591,5.591,0,0,1,4.334.946,27.859,27.859,0,0,1,5.6,5.13,33.986,33.986,0,0,1,2.931,3.577,10.29,10.29,0,0,1,.8,9.978,7.837,7.837,0,0,1-5.6,4.176l-20.3,4.992q-4.167,1.023-4.311,2.991t2.481,4.319Zm12.559-15a75.959,75.959,0,0,0-7.581-11.109q-3.118-3.535-6.388-2.727-3.423.841-4.218,2.89a8.62,8.62,0,0,0-.03,5.172,10.561,10.561,0,0,0,2.786,4.915,19.713,19.713,0,0,0,4.574,3.528Z" transform="translate(-194.21 -57.682)" fill="rgba(204,204,204,0.6)"/>
      <path id="패스_30" data-name="패스 30" d="M578.887,247.271c-1.327-.049-2.323-.076-2.987-.087a81,81,0,0,1,4.7,7.5,15.358,15.358,0,0,1,2.173,7.7q-.073,4.593-3.438,6.53a15.477,15.477,0,0,1-8.11,1.86l-18.148-.294q-3.217-.052-4.574,1t-1.414,4.5l-1.914-.032q.016-1.073.033-2.029t.107-1.875q.014-.919.068-1.876c.035-.638.06-1.314.071-2.028q.019-1.149,0-2.107c-.016-.64-.017-1.263-.008-1.876s.006-1.238-.008-1.876-.017-1.316,0-2.029l1.914.03q-.052,3.293,1.27,4.386t4.537,1.147l18.225.3q3.828.062,5.542-1.673t1.778-5.791a11.233,11.233,0,0,0-.531-2.69,30.481,30.481,0,0,0-1.137-3.081,32.6,32.6,0,0,0-1.635-3.129,19.946,19.946,0,0,0-1.8-2.595l-20.139-.327q-3.215-.052-4.572,1t-1.414,4.5l-1.914-.032c.013-.766.022-1.455.033-2.067s.044-1.224.106-1.837c.011-.613.032-1.238.07-1.875s.058-1.316.071-2.029q.016-1.149,0-2.107c-.016-.64-.017-1.263-.008-1.876q.016-.995-.006-1.954t-.006-2.029l1.916.032q-.057,3.369,1.268,4.425t4.539,1.107l17.995.291q2.068.033,3.294-.062a4.126,4.126,0,0,0,1.923-.543,2.228,2.228,0,0,0,.941-1.363,10.754,10.754,0,0,0,.27-2.522l1.609.025a22.583,22.583,0,0,0,1.076,4.5,10.954,10.954,0,0,0,2.314,3.752l-.024,1.455Q580.877,247.342,578.887,247.271Z" transform="translate(-191.438 -43.232)" fill="rgba(204,204,204,0.6)"/>
      <path id="패스_31" data-name="패스 31" d="M538.516,287.177a28.359,28.359,0,0,1,1.887-3.52,23.059,23.059,0,0,1,2.382-3.219,10.2,10.2,0,0,1,2.522-2.11,2.566,2.566,0,0,1,2.405-.235,2.139,2.139,0,0,1,1.38,1.614,4.05,4.05,0,0,1-.366,2.348,7.09,7.09,0,0,1-1.538,2.252q-.948.917-2.167,1.973-.995.732-2.506,2.075a8.287,8.287,0,0,0-2.246,3.195,9.977,9.977,0,0,0-.7,4.713,11.658,11.658,0,0,0,1.513,4.728,16.893,16.893,0,0,0,3.55,4.286,20.378,20.378,0,0,0,5.34,3.359q8.057,3.556,14.523.381t10.455-13.552a2.144,2.144,0,0,1,.867-1.208q.569-.336.9.06l15.409,15.923-8.315,18.848-3.553-2.571,7.265-16.468-9.654-9.615a30.661,30.661,0,0,1-5.081,8.767,20.936,20.936,0,0,1-6.617,5.324,17.088,17.088,0,0,1-7.682,1.761,20.574,20.574,0,0,1-8.3-1.864,22.975,22.975,0,0,1-7.053-4.785,21.562,21.562,0,0,1-4.591-6.671,20.274,20.274,0,0,1-1.679-7.77A18.788,18.788,0,0,1,538.516,287.177Z" transform="translate(-196.26 -19.258)" fill="rgba(204,204,204,0.6)"/>
      <path id="패스_32" data-name="패스 32" d="M558.981,314.021a59.546,59.546,0,0,1,8.143,7.789,34.864,34.864,0,0,1,5.488,8.419,19.029,19.029,0,0,1,1.781,8.407,12.748,12.748,0,0,1-2.933,7.694,12.878,12.878,0,0,1-6.8,4.623,18.659,18.659,0,0,1-8.563.191,34.864,34.864,0,0,1-9.443-3.441,59.6,59.6,0,0,1-9.428-6.169,57.338,57.338,0,0,1-8.148-7.843,34.327,34.327,0,0,1-5.381-8.43,19.307,19.307,0,0,1-1.721-8.361,12.592,12.592,0,0,1,2.892-7.581,12.87,12.87,0,0,1,6.8-4.621,18.834,18.834,0,0,1,8.5-.24,33.8,33.8,0,0,1,9.353,3.372A59.3,59.3,0,0,1,558.981,314.021Zm-32.016-3.034a7.881,7.881,0,0,0-1.781,5.382,14.612,14.612,0,0,0,1.984,6.368,36.561,36.561,0,0,0,5.281,7.08,78.924,78.924,0,0,0,17.18,13.647,38.018,38.018,0,0,0,8.182,3.615,15.667,15.667,0,0,0,6.8.61,7.839,7.839,0,0,0,6.6-8.252,15.6,15.6,0,0,0-2.078-6.493,36.533,36.533,0,0,0-5.348-7.181,73.094,73.094,0,0,0-8.129-7.437,69.031,69.031,0,0,0-9.075-6.181,36.394,36.394,0,0,0-8.14-3.482,15.322,15.322,0,0,0-6.706-.485A7.593,7.593,0,0,0,526.965,310.988Z" transform="translate(-204.887 -4.082)" fill="rgba(204,204,204,0.6)"/>
      <path id="패스_33" data-name="패스 33" d="M504.5,346.076q3.352,2.686,6.883,5.535,3.6,2.81,6.734,5.354t4.572,3.846a6.208,6.208,0,0,0,3.075,1.568,5.63,5.63,0,0,0,3.541-.889l.974,1.736a26.982,26.982,0,0,0-2.98,1.5l-3.907,2.192q-2,1.123-3.754,2.151t-2.516,1.543l-1.05-1.872q2.53-1.594,2.931-2.917t-1.251-2.854l-17.668-14.588,2.615,22.505q.36,2.518,1.676,3.143t3.52-.613l1.011,1.8a19.176,19.176,0,0,0-2.364,1.107q-1.488.789-3.091,1.69t-2.988,1.718a16.865,16.865,0,0,0-2.042,1.368l-1.012-1.8a5.348,5.348,0,0,0,2.806-2.98,12.4,12.4,0,0,0,.047-4.768l-5.054-47.043a5.528,5.528,0,0,1,.873-4,8.654,8.654,0,0,1,2.731-2.41,4.519,4.519,0,0,1,2.544-.551A2.7,2.7,0,0,1,503.6,319.1a2.328,2.328,0,0,1,.057,2.6,4.051,4.051,0,0,1-1.846,1.563,1.562,1.562,0,0,1-.695.169c-.284.014-.576.016-.875.008-.272.036-.55.06-.836.074a3.621,3.621,0,0,0-.733.1,2.715,2.715,0,0,0-.936.834,2.2,2.2,0,0,0-.3,1.35l1.83,16.1Q501.153,343.388,504.5,346.076Z" transform="translate(-220.413 3.707)" fill="rgba(204,204,204,0.6)"/>
      <path id="패스_34" data-name="패스 34" d="M496.238,360.128a12.488,12.488,0,0,0-.467-2.416q-.367-1.251-1.094-3.19a16.752,16.752,0,0,0-6.2-8.359,10.747,10.747,0,0,0-9.56-1.311,13.868,13.868,0,0,0-5.938,3.3,15.241,15.241,0,0,0-3.4,4.866l-1.222-.36a19.253,19.253,0,0,1,3.752-7.761,13.807,13.807,0,0,1,7.105-4.755,13.573,13.573,0,0,1,6.232-.388,14.967,14.967,0,0,1,5.742,2.309,18.57,18.57,0,0,1,4.738,4.6,21.053,21.053,0,0,1,3.162,6.575,28.327,28.327,0,0,1,1.257,8.65,20.069,20.069,0,0,1-1.353,7.1,14.33,14.33,0,0,1-3.674,5.3,14.053,14.053,0,0,1-5.529,3.056,14.5,14.5,0,0,1-4.624.556,12.671,12.671,0,0,1-4.615-1.042,12.276,12.276,0,0,1-4-3.02,13.931,13.931,0,0,1-2.78-5.131,2.936,2.936,0,0,1-.156-1.35c.068-.313.382-.6.941-.873Zm-15.04,6.958a3.6,3.6,0,0,0-1.791.963,1.77,1.77,0,0,0-.147,1.679,6.778,6.778,0,0,0,1.282,2.337,9.352,9.352,0,0,0,2.217,1.985,9.131,9.131,0,0,0,3.035,1.105,7.8,7.8,0,0,0,3.6-.256,9.332,9.332,0,0,0,5.96-4.578,13.583,13.583,0,0,0,1.353-7.778Z" transform="translate(-235.945 16.462)" fill="rgba(204,204,204,0.6)"/>
      <path id="패스_35" data-name="패스 35" d="M444.2,348.778a29.519,29.519,0,0,1,3.384-3.116,6.6,6.6,0,0,1,3.707-1.522,3.388,3.388,0,0,1,3.043,1.508,9.789,9.789,0,0,1,1.549,4.818,23.875,23.875,0,0,1,5.987-5.148,15.348,15.348,0,0,1,7.082-2.221,8.121,8.121,0,0,1,5.943,1.912,7.073,7.073,0,0,1,2.552,5.564,7.813,7.813,0,0,1-1.434,4.956,14.369,14.369,0,0,1-4.338,3.824,42.57,42.57,0,0,1-6.56,3.227q-3.821,1.528-8.323,3.253l.311,5.275a9.285,9.285,0,0,0,1.894,5.45q1.7,2.085,6.207,1.819a9.217,9.217,0,0,0,5.584-2.209,5.772,5.772,0,0,0,2.293-4.7,4.047,4.047,0,0,1,.569-2.718,2.282,2.282,0,0,1,1.747-.948,1.592,1.592,0,0,1,1.459.682,3.6,3.6,0,0,1,.614,1.958,5.6,5.6,0,0,1-1.715,4.09,27.832,27.832,0,0,1-6.058,4.577,33.945,33.945,0,0,1-4.049,2.233,9.9,9.9,0,0,1-3.443.816,9.8,9.8,0,0,1-6.515-1.84,7.833,7.833,0,0,1-3.092-6.262l-1.232-20.871q-.254-4.283-2.162-4.782t-4.7,1.658Zm12.473,15.067a75.8,75.8,0,0,0,12.3-5.444q4.039-2.426,3.839-5.788-.209-3.518-2.08-4.672a8.615,8.615,0,0,0-5.081-.966,10.555,10.555,0,0,0-5.338,1.849,19.781,19.781,0,0,0-4.3,3.86Z" transform="translate(-249.937 18.506)" fill="rgba(204,204,204,0.6)"/>
      <path id="패스_36" data-name="패스 36" d="M439.079,372.594a30.966,30.966,0,0,1-3.028,2.6q-1.661,1.258-3.285,2.252a19.794,19.794,0,0,1-3.234,1.407,6.2,6.2,0,0,1-2.835.306,5.486,5.486,0,0,1-3.035-1.429,3.047,3.047,0,0,1-.968-2.819,3.486,3.486,0,0,1,1.518-2.6,3.17,3.17,0,0,1,3.625-.148,7.907,7.907,0,0,1,.962.8,7.776,7.776,0,0,0,1.071.861,4.11,4.11,0,0,0,1.657.561,4.346,4.346,0,0,0,2-.395,12.445,12.445,0,0,0,2.612-1.385,10.264,10.264,0,0,0,2.416-2.151,5.561,5.561,0,0,0,1.263-2.713l2.434-16.052a14,14,0,0,0,.188-3.031,2.8,2.8,0,0,0-.9-1.958,6.245,6.245,0,0,0-2.448-1.224,35.092,35.092,0,0,0-4.433-.9l.287-1.892q1.732.339,4.3.768t5.3.842q2.727.412,5.306.764t4.332.542l-.286,1.892q-3.864-.585-5.147.226t-1.872,4.675l-2.7,17.794a28.233,28.233,0,0,0-.341,3.279,4.47,4.47,0,0,0,.319,1.985,2.229,2.229,0,0,0,1.226,1.115,10.844,10.844,0,0,0,2.464.6l-.242,1.59a22.559,22.559,0,0,0-4.6.464,11.794,11.794,0,0,0-4.1,1.78l-1.363-.207q.538-2.009.908-4.2T439.079,372.594Z" transform="translate(-262.422 18.279)" fill="rgba(204,204,204,0.6)"/>
      <path id="패스_37" data-name="패스 37" d="M430.41,353.286a25.757,25.757,0,0,0,.422-3.422,10.9,10.9,0,0,0-.355-3.528,7.611,7.611,0,0,0-1.715-3.11,8.668,8.668,0,0,0-3.711-2.266q-4.124-1.433-6.3-.2a6.183,6.183,0,0,0-2.926,3.4,5.969,5.969,0,0,0-.306,3.1,8.762,8.762,0,0,0,1.03,2.75,14.06,14.06,0,0,0,1.941,2.581q1.182,1.263,2.424,2.587a31.233,31.233,0,0,1,4.817,6.663,8.591,8.591,0,0,1,.526,7.115,9.105,9.105,0,0,1-2.055,3.34,10.591,10.591,0,0,1-3.324,2.329,12.485,12.485,0,0,1-4.25.914,13.159,13.159,0,0,1-4.954-.791,19.29,19.29,0,0,1-3.707-1.816,15.99,15.99,0,0,1-3.546-2.977l2.189-8.159,1.518.529a10.967,10.967,0,0,0,.34,6.483q1.118,2.618,4.806,3.9a9.119,9.119,0,0,0,5.409.3,4.624,4.624,0,0,0,3.419-3.067,5.838,5.838,0,0,0,.248-3.28,9.38,9.38,0,0,0-1.3-3.007,20.127,20.127,0,0,0-2.361-2.769q-1.386-1.374-2.871-2.7-1.386-1.376-2.677-2.8a13.043,13.043,0,0,1-2.091-3.078,10.624,10.624,0,0,1-.973-3.38,8.52,8.52,0,0,1,.486-3.844,11.189,11.189,0,0,1,2.056-3.582,9.55,9.55,0,0,1,3.4-2.547,11.176,11.176,0,0,1,4.664-1.053,16.365,16.365,0,0,1,5.727,1.019,19.187,19.187,0,0,1,4.4,2.262,16.145,16.145,0,0,1,3.591,3.2l-2.328,9.487Z" transform="translate(-272.981 15.503)" fill="rgba(204,204,204,0.6)"/>
      <path id="패스_38" data-name="패스 38" d="M372.113,325.441a20.156,20.156,0,0,1,13-7.052,18.124,18.124,0,0,1,7.075.477,16.086,16.086,0,0,1,6.278,3.312,20.4,20.4,0,0,1,4.709,5.7,17.437,17.437,0,0,1,2.138,6.834,17.737,17.737,0,0,1-.731,7.26,20.039,20.039,0,0,1-4.005,7.094,21.219,21.219,0,0,1-5.9,4.889,19.846,19.846,0,0,1-6.868,2.36,19.089,19.089,0,0,1-7.08-.529,16.519,16.519,0,0,1-6.507-3.457,20.568,20.568,0,0,1-4.83-5.85,17.019,17.019,0,0,1-2.086-6.837,17.913,17.913,0,0,1,.818-7.186A20.35,20.35,0,0,1,372.113,325.441Zm4.867,3.021a28.492,28.492,0,0,0-3.361,5.032,19.49,19.49,0,0,0-2.044,5.847,14.136,14.136,0,0,0,.28,6.009,10.428,10.428,0,0,0,3.53,5.25,10.7,10.7,0,0,0,5.46,2.62,12.012,12.012,0,0,0,5.476-.48,18.146,18.146,0,0,0,5.1-2.757,25.233,25.233,0,0,0,7.446-8.846,20.545,20.545,0,0,0,2.045-5.847,14.083,14.083,0,0,0-.172-6.017,10.226,10.226,0,0,0-3.539-5.359,10.5,10.5,0,0,0-5.43-2.595,11.881,11.881,0,0,0-5.5.562,16.15,16.15,0,0,0-5.106,2.648A26.522,26.522,0,0,0,376.98,328.462Z" transform="translate(-294.528 4.115)" fill="rgba(204,204,204,0.6)"/>
      <path id="패스_39" data-name="패스 39" d="M358.909,321.722l2.669-2.058,6.362,8.246L387.524,312.8q2.67-2.059,2.32-4.015a13.432,13.432,0,0,0-2.827-5.169l1.516-1.17q1.156,1.625,2.645,3.618t3.08,4.056q1.545,2,3.072,3.918t2.71,3.326l-1.516,1.169q-2.1-2.729-4.034-3.223t-4.234,1.282l-19.463,15.016,3.555,4.608-1.213.936a10.778,10.778,0,0,0-3.386-2.322,3.853,3.853,0,0,0-4.111.753,32.438,32.438,0,0,1-3.933,2.551,32.04,32.04,0,0,1-4.872,2.211,29.761,29.761,0,0,1-5.043,1.425,14.131,14.131,0,0,1-4.77.148,19.987,19.987,0,0,1-6.834-1.837,11.127,11.127,0,0,1-3.144-2.072,4.271,4.271,0,0,1-1.049-2.674,2.918,2.918,0,0,1,1.3-2.262,2.273,2.273,0,0,1,2.315-.384,3.852,3.852,0,0,1,1.739,1.126,3.519,3.519,0,0,1,.516.858q.144.374.349.891a10.978,10.978,0,0,0,.505,1.158,10.589,10.589,0,0,0,1.1,1.671,4.431,4.431,0,0,0,2.589,1.726,9.124,9.124,0,0,0,3.181.109,11.862,11.862,0,0,0,3.1-.992,13.672,13.672,0,0,0,2.454-1.458l10.127-7.811Z" transform="translate(-312.624 -5.034)" fill="rgba(204,204,204,0.6)"/>
      <path id="패스_40" data-name="패스 40" d="M333.69,312.323a20.977,20.977,0,0,0-2.977,1.129,4.083,4.083,0,0,0-1.573,1.252,2.485,2.485,0,0,0-.264,1.728,18.613,18.613,0,0,0,.64,2.568l-1.462.455a24.405,24.405,0,0,0-2.778-4.147,13.731,13.731,0,0,0-3.669-3.148l-.411-1.316q2.044-.4,4.3-1.019t4.007-1.17l23.4-7.3q-1.585-.708-3.419-1.7a37.185,37.185,0,0,1-3.579-2.213,21.392,21.392,0,0,1-3.08-2.931,10.077,10.077,0,0,1-2-3.587,8.815,8.815,0,0,1,1.151-8.141,14.124,14.124,0,0,1,7.609-5.18l16.378-5.108q1.682-.526,2.743-.976a3.486,3.486,0,0,0,1.56-1.17,2.856,2.856,0,0,0,.412-1.892,14.358,14.358,0,0,0-.679-3.078l1.829-.57c.213.684.414,1.328.6,1.938s.352,1.213.486,1.813q.272.879.534,1.84c.174.641.373,1.327.6,2.058s.448,1.4.663,2,.412,1.2.6,1.78.381,1.178.6,1.78.428,1.244.64,1.927l-1.827.569a20.485,20.485,0,0,0-.979-2.622,2.915,2.915,0,0,0-1.243-1.418,3.412,3.412,0,0,0-1.969-.268,18.042,18.042,0,0,0-3.174.75L355.5,280.652a37.011,37.011,0,0,0-5.76,2.238,9.828,9.828,0,0,0-3.271,2.5,4.851,4.851,0,0,0-1.2,2.979,11.335,11.335,0,0,0,.6,3.865,10.465,10.465,0,0,0,3.765,5,19.988,19.988,0,0,0,5.883,3.3L373,295.09q3.437-1.073,4.285-2.339t-.246-4.777l1.827-.57q.341,1.1.616,1.974c.182.584.341,1.178.474,1.778q.275.877.523,1.8t.567,1.949c.227.731.45,1.4.663,2s.414,1.2.6,1.78q.3.95.619,1.853t.64,1.925l-1.827.572q-1.026-3.293-2.419-3.9t-4.9.486Z" transform="translate(-321.196 -26.835)" fill="rgba(204,204,204,0.6)"/>
      <path id="패스_41" data-name="패스 41" d="M344.5,270.455a12.468,12.468,0,0,0,2.461.077q1.3-.083,3.354-.363a16.766,16.766,0,0,0,9.52-4.2,10.753,10.753,0,0,0,3.386-9.037,13.87,13.87,0,0,0-1.9-6.518,15.265,15.265,0,0,0-4-4.392l.621-1.113a19.26,19.26,0,0,1,6.744,5.371,13.83,13.83,0,0,1,3.07,7.98,13.592,13.592,0,0,1-1,6.163,14.946,14.946,0,0,1-3.517,5.092,18.582,18.582,0,0,1-5.529,3.609,21.083,21.083,0,0,1-7.112,1.635,28.367,28.367,0,0,1-8.713-.682,20.137,20.137,0,0,1-6.627-2.885,14.346,14.346,0,0,1-4.364-4.754,14.051,14.051,0,0,1-1.761-6.066,14.483,14.483,0,0,1,.477-4.634,12.648,12.648,0,0,1,2.036-4.27,12.256,12.256,0,0,1,3.827-3.233,13.894,13.894,0,0,1,5.616-1.579,2.962,2.962,0,0,1,1.353.145c.289.136.5.505.644,1.112Zm-3.468-16.2a3.61,3.61,0,0,0-.546-1.96,1.775,1.775,0,0,0-1.6-.513,6.769,6.769,0,0,0-2.563.736,9.3,9.3,0,0,0-2.423,1.725,9.053,9.053,0,0,0-1.748,2.718,7.771,7.771,0,0,0-.545,3.563,9.331,9.331,0,0,0,3.151,6.824,13.571,13.571,0,0,0,7.289,3.035Z" transform="translate(-316.61 -38.368)" fill="rgba(204,204,204,0.6)"/>
      <path id="패스_42" data-name="패스 42" d="M367.195,221.595a29.332,29.332,0,0,1,2.3,3.981,6.613,6.613,0,0,1,.679,3.95,3.393,3.393,0,0,1-2.135,2.641,9.815,9.815,0,0,1-5.041.463,23.856,23.856,0,0,1,3.719,6.965,15.362,15.362,0,0,1,.622,7.394,8.123,8.123,0,0,1-3.162,5.384,7.075,7.075,0,0,1-5.987,1.278,7.814,7.814,0,0,1-4.525-2.48,14.406,14.406,0,0,1-2.786-5.068A42.689,42.689,0,0,1,349.165,239q-.659-4.065-1.36-8.832l-5.216-.848a9.277,9.277,0,0,0-5.731.662q-2.407,1.2-3.13,5.659a9.236,9.236,0,0,0,.938,5.934,5.779,5.779,0,0,0,4.087,3.263,4.045,4.045,0,0,1,2.529,1.147,2.283,2.283,0,0,1,.543,1.911,1.59,1.59,0,0,1-.982,1.276,3.588,3.588,0,0,1-2.045.172,5.6,5.6,0,0,1-3.618-2.565,27.838,27.838,0,0,1-3.146-6.911,33.877,33.877,0,0,1-1.3-4.439,10.288,10.288,0,0,1,3.17-9.493,7.826,7.826,0,0,1,6.786-1.654l20.637,3.348q4.233.687,5.138-1.066t-.594-4.946Zm-17.425,8.887a76.018,76.018,0,0,0,2.631,13.19q1.488,4.47,4.814,5.01,3.475.564,5.011-1.011a8.632,8.632,0,0,0,2.051-4.749,10.556,10.556,0,0,0-.641-5.613,19.736,19.736,0,0,0-2.83-5.036Z" transform="translate(-315.775 -51.872)" fill="rgba(204,204,204,0.6)"/>
      <path id="패스_43" data-name="패스 43" d="M331.188,209.043a20.831,20.831,0,0,0-3.054-.9,3.633,3.633,0,0,0-2.037.12,2.5,2.5,0,0,0-1.252,1.218,18.586,18.586,0,0,0-1.039,2.435l-1.442-.52a24.5,24.5,0,0,0,.289-4.983,13.749,13.749,0,0,0-1.027-4.725l.467-1.3q1.867.914,4.04,1.778t3.9,1.486l42.945,15.462q3.025,1.09,4.649.535t2.765-3.726l1.8.649q-.571,1.585-1.32,3.555t-1.45,3.914q-.725,2.018-1.413,3.926t-1.134,3.377l-1.8-.649q1.168-3.241.4-4.616t-4.081-2.568Z" transform="translate(-320.947 -64.153)" fill="rgba(204,204,204,0.6)"/>
      <path id="패스_44" data-name="패스 44" d="M369.368,208.751q3.923,2.085,5.954,1.69a4.288,4.288,0,0,0,3.073-2.356,8.245,8.245,0,0,0,.6-1.628,14,14,0,0,0,.412-2.08q.166-1.125.223-2.05a5.754,5.754,0,0,0-.066-1.51l1.271-.1a19.605,19.605,0,0,1,1.019,5.831,11,11,0,0,1-1.331,5.363,7.143,7.143,0,0,1-4.171,3.768,7.573,7.573,0,0,1-5.836-.933L347.867,202.7l-2.516,4.733-1.286-.682a10.106,10.106,0,0,0-.617-6.834,18.381,18.381,0,0,0-5.333-5.957l.755-1.42,8.25,4.386,5.75-10.821,2.975,1.582-5.75,10.82Z" transform="translate(-311.395 -72.432)" fill="rgba(204,204,204,0.6)"/>
      <path id="패스_45" data-name="패스 45" d="M348.234,176.429a20.974,20.974,0,0,0-2.555-1.9,4.107,4.107,0,0,0-1.9-.652,2.486,2.486,0,0,0-1.6.708,18.718,18.718,0,0,0-1.819,1.924l-1.172-.985a24.511,24.511,0,0,0,2-4.575,13.754,13.754,0,0,0,.676-4.787l.888-1.055q1.433,1.509,3.173,3.07t3.143,2.748l18.75,15.781q-.256-1.718-.407-3.8a36.929,36.929,0,0,1-.063-4.207,21.173,21.173,0,0,1,.81-4.173,10.065,10.065,0,0,1,1.944-3.62,8.815,8.815,0,0,1,7.48-3.414,14.13,14.13,0,0,1,8.464,3.621l13.124,11.047q1.348,1.135,2.3,1.786a3.5,3.5,0,0,0,1.824.685,2.876,2.876,0,0,0,1.818-.673,14.505,14.505,0,0,0,2.227-2.23l1.466,1.233q-.692.82-1.308,1.552t-1.267,1.385q-.592.7-1.262,1.442t-1.41,1.614q-.741.881-1.327,1.636t-1.18,1.461q-.592.7-1.178,1.459t-1.278,1.578l-1.466-1.232a20.847,20.847,0,0,0,1.684-2.238,2.916,2.916,0,0,0,.523-1.811,3.39,3.39,0,0,0-.834-1.8,17.959,17.959,0,0,0-2.342-2.273l-9.492-7.988a36.994,36.994,0,0,0-4.987-3.648,9.826,9.826,0,0,0-3.871-1.406,4.855,4.855,0,0,0-3.155.6,11.3,11.3,0,0,0-2.93,2.589,10.468,10.468,0,0,0-2.187,5.869,19.958,19.958,0,0,0,.388,6.733l14,11.786q2.755,2.319,4.278,2.35t3.891-2.78l1.466,1.232q-.742.879-1.333,1.582c-.395.469-.807.921-1.241,1.357q-.592.7-1.238,1.41t-1.336,1.529q-.739.879-1.327,1.636c-.39.505-.783.99-1.178,1.459q-.642.763-1.229,1.519t-1.278,1.578l-1.466-1.233q2.22-2.637,1.982-4.138t-3.05-3.869Z" transform="translate(-310.773 -84.598)" fill="rgba(204,204,204,0.6)"/>
    </g>
  </g>
</svg>
