<svg xmlns="http://www.w3.org/2000/svg" width="227.722" height="230.25" viewBox="0 0 227.722 230.25">
  <g id="direct_circle" transform="translate(-423.447 -198.622)">
    <g id="그룹_27" data-name="그룹 27" transform="translate(423.447 198.622)">
      <path id="패스_101" data-name="패스 101" d="M492.285,221.6l1.932,3.911a6.991,6.991,0,0,0,.513.9,1.171,1.171,0,0,0,.515.442,1.022,1.022,0,0,0,.688.026,5.485,5.485,0,0,0,.981-.394l.336.679q-.376.164-1.106.512t-1.538.748q-.789.391-1.5.754t-1.051.553l-.326-.661a6.791,6.791,0,0,0,.873-.5,1.047,1.047,0,0,0,.414-.5,1.235,1.235,0,0,0-.034-.692,6.852,6.852,0,0,0-.434-1.042l-4.4-8.9a4.7,4.7,0,0,0-.509-.844,1.137,1.137,0,0,0-.511-.388,1.125,1.125,0,0,0-.633.038,8.163,8.163,0,0,0-.926.367l-.336-.679q.45-.2,1.17-.544t1.492-.726q.791-.39,1.529-.766t1.226-.641a6.189,6.189,0,0,1,2.325-.7,4.1,4.1,0,0,1,1.763.237,3.479,3.479,0,0,1,1.237.817,4.246,4.246,0,0,1,.75,1.034,3.636,3.636,0,0,1,.378,1.343,4.2,4.2,0,0,1-.1,1.3,4.261,4.261,0,0,1-.473,1.17,4.053,4.053,0,0,1-.764.949q.621.425,1.411.891t1.594.892q.795.453,1.535.818t1.289.6a4.989,4.989,0,0,0,1.353.428,2.416,2.416,0,0,0,1.494-.259l.336.679q-.68.29-1.524.708t-1.414.744q-.849-.424-1.827-.97t-1.991-1.117q-1-.583-1.964-1.154T494.3,220.6Zm-.426-.863c.177-.073.321-.137.431-.191q.192-.073.386-.168l.339-.168a4.845,4.845,0,0,0,1.462-1.041,3.411,3.411,0,0,0,.729-1.184,2.818,2.818,0,0,0,.12-1.213,3.458,3.458,0,0,0-.329-1.105,3.356,3.356,0,0,0-1.742-1.7,3.641,3.641,0,0,0-2.952.431c-.282.139-.515.258-.7.358a5.943,5.943,0,0,0-.537.323Z" transform="translate(-428.895 -199.849)" fill="#3d3d3d"/>
      <path id="패스_102" data-name="패스 102" d="M515.287,215.3a5.3,5.3,0,0,1,.279,2.068,5.49,5.49,0,0,1-.48,1.936,5.082,5.082,0,0,1-1.139,1.585,4.625,4.625,0,0,1-1.719,1.025,5.669,5.669,0,0,1-2.025.307,4.946,4.946,0,0,1-1.913-.445,4.8,4.8,0,0,1-1.592-1.191,5.446,5.446,0,0,1-1.078-1.906,5.717,5.717,0,0,1-.3-2.048,5.229,5.229,0,0,1,.429-1.929,4.986,4.986,0,0,1,1.116-1.588,4.638,4.638,0,0,1,1.754-1.048,5.8,5.8,0,0,1,2.1-.32,5.046,5.046,0,0,1,1.926.451,4.943,4.943,0,0,1,1.573,1.2A5.439,5.439,0,0,1,515.287,215.3Zm-1.867.87a6.9,6.9,0,0,0-.664-1.386,6.1,6.1,0,0,0-1.006-1.248,3.79,3.79,0,0,0-1.306-.759,2.53,2.53,0,0,0-2.7.861,3.14,3.14,0,0,0-.545,1.266,4.547,4.547,0,0,0-.048,1.486,6.755,6.755,0,0,0,.942,2.751,5.173,5.173,0,0,0,1,1.239,3.518,3.518,0,0,0,1.3.813,2.506,2.506,0,0,0,2.706-.851,3.283,3.283,0,0,0,.558-1.292,5.072,5.072,0,0,0,.055-1.467A6.443,6.443,0,0,0,513.42,216.168Z" transform="translate(-430.666 -199.779)" fill="#3d3d3d"/>
      <path id="패스_103" data-name="패스 103" d="M521.406,216.189q-.666-.975-1.319-1.943-.674-.963-1.225-1.8t-.787-1.242a1.44,1.44,0,0,0-.6-.581,1.635,1.635,0,0,0-1-.011l-.167-.76q.3-.045.937-.174t1.332-.284q.68-.149,1.278-.291c.4-.095.676-.167.833-.215l.171.78a2.13,2.13,0,0,0-1,.484q-.179.238.043.671l3.046,4.594.925-5.321q.105-.568-.161-.781a1.162,1.162,0,0,0-.947-.065l-.172-.78q.245-.033.757-.135t1.068-.246c.373-.082.723-.161,1.049-.241s.559-.14.7-.186l.176.8a1.424,1.424,0,0,0-.959.547,3.262,3.262,0,0,0-.37,1.13l-2.3,12.313a1.669,1.669,0,0,1-.655,1.077,2.837,2.837,0,0,1-1.126.553,1.333,1.333,0,0,1-.931-.131,1.011,1.011,0,0,1-.552-.7,1.183,1.183,0,0,1,.111-.832,1.034,1.034,0,0,1,.618-.524,2.593,2.593,0,0,1,.523-.053,1.206,1.206,0,0,1,.563.128.4.4,0,0,0,.366-.006.482.482,0,0,0,.244-.274l.66-3.857Q522.071,217.165,521.406,216.189Z" transform="translate(-431.635 -199.419)" fill="#3d3d3d"/>
      <path id="패스_104" data-name="패스 104" d="M539.136,215.186a10.155,10.155,0,0,1-.893.936,1.976,1.976,0,0,1-1.145.533,1.216,1.216,0,0,1-1.014-.307,1.474,1.474,0,0,1-.48-.863,4.8,4.8,0,0,1-1.192,1.033,4.32,4.32,0,0,1-1.913.661,2.413,2.413,0,0,1-1.782-.436,1.971,1.971,0,0,1-.811-1.515,2.157,2.157,0,0,1,.315-1.4,4.206,4.206,0,0,1,1.089-1.113,9.474,9.474,0,0,1,1.675-.954q.968-.44,2.07-.916l-.151-1.323a2.17,2.17,0,0,0-.552-1.318,1.683,1.683,0,0,0-1.453-.35,1.957,1.957,0,0,0-1.213.572,1.415,1.415,0,0,0-.424,1.162,1.079,1.079,0,0,1-.166.8.9.9,0,0,1-.652.342.671.671,0,0,1-.616-.166,1.032,1.032,0,0,1-.232-.582,1.514,1.514,0,0,1,.385-1.147,8.187,8.187,0,0,1,1.637-1.372,10.869,10.869,0,0,1,1.047-.666,2.758,2.758,0,0,1,.987-.287,2.914,2.914,0,0,1,1.943.407,2.166,2.166,0,0,1,.977,1.692l.627,5.494q.12,1.059.489,1.12t1.229-.7Zm-3.988-3.523a10.916,10.916,0,0,0-2.809,1.4,1.653,1.653,0,0,0-.733,1.516,1.391,1.391,0,0,0,.519,1.115,1.873,1.873,0,0,0,1.152.158,2.418,2.418,0,0,0,1.226-.543,4.9,4.9,0,0,0,.952-.964Z" transform="translate(-432.806 -199.316)" fill="#3d3d3d"/>
      <path id="패스_105" data-name="패스 105" d="M542.005,201.861a6.146,6.146,0,0,0-.069-.807.851.851,0,0,0-.18-.434.664.664,0,0,0-.415-.16,6.382,6.382,0,0,0-.718-.005l-.022-.615a6.157,6.157,0,0,0,1.307-.445,4.267,4.267,0,0,0,1.111-.747l.757-.026q-.041.555-.048,1.241c0,.459,0,.844.011,1.158l.425,12.076a1.807,1.807,0,0,0,.306,1.126,1.569,1.569,0,0,0,1.2.275l.027.758q-.431.015-1.065.027t-1.29.036l-1.269.044c-.409.015-.743.034-1,.056l-.026-.757q.941-.033,1.167-.307a1.972,1.972,0,0,0,.194-1.2Z" transform="translate(-433.777 -198.622)" fill="#3d3d3d"/>
      <path id="패스_106" data-name="패스 106" d="M568.973,205.965l-.752-.1a4.212,4.212,0,0,0-1.018-2.885,4.572,4.572,0,0,0-2.8-1.211,5.93,5.93,0,0,0-4.628,1.333,6.621,6.621,0,0,0-1.551,1.981,7.852,7.852,0,0,0-.816,2.694,8.642,8.642,0,0,0,.124,3.092,7.321,7.321,0,0,0,1.085,2.512,6.232,6.232,0,0,0,4.338,2.593,3.442,3.442,0,0,0,2.754-.714,5.265,5.265,0,0,0,1.616-2.489l.833.1-1.009,3.4a4.649,4.649,0,0,1-.948.313,9.22,9.22,0,0,1-1.222.2,10.951,10.951,0,0,1-1.331.079,9.87,9.87,0,0,1-1.189-.067,9.053,9.053,0,0,1-3.218-1,7.337,7.337,0,0,1-3.689-4.772,9.238,9.238,0,0,1-.162-3.447,7.156,7.156,0,0,1,1.075-3.023,8.126,8.126,0,0,1,2.109-2.23,8.561,8.561,0,0,1,2.786-1.288,8,8,0,0,1,3.06-.2,9.53,9.53,0,0,1,2.5.678,24.32,24.32,0,0,1,2.248,1.08Z" transform="translate(-435.074 -198.812)" fill="#3d3d3d"/>
      <path id="패스_107" data-name="패스 107" d="M579.118,219.676a10.271,10.271,0,0,1-1.169.555,1.978,1.978,0,0,1-1.26.087,1.212,1.212,0,0,1-.837-.65,1.469,1.469,0,0,1-.139-.977,4.8,4.8,0,0,1-1.482.537,4.317,4.317,0,0,1-2.024-.068,2.415,2.415,0,0,1-1.507-1.044,1.977,1.977,0,0,1-.215-1.706,2.162,2.162,0,0,1,.794-1.191,4.2,4.2,0,0,1,1.415-.649,9.471,9.471,0,0,1,1.9-.292q1.064-.063,2.261-.114l.333-1.289a2.173,2.173,0,0,0-.044-1.428,1.679,1.679,0,0,0-1.23-.846,1.959,1.959,0,0,0-1.338.1,1.413,1.413,0,0,0-.811.933,1.084,1.084,0,0,1-.442.689.906.906,0,0,1-.731.087.674.674,0,0,1-.516-.377,1.038,1.038,0,0,1-.008-.626,1.515,1.515,0,0,1,.77-.933,8.166,8.166,0,0,1,2.019-.695,10.715,10.715,0,0,1,1.216-.246,2.756,2.756,0,0,1,1.026.084,2.917,2.917,0,0,1,1.668,1.077,2.161,2.161,0,0,1,.305,1.929l-1.381,5.354q-.267,1.031.055,1.22t1.4-.211Zm-2.463-4.718a10.909,10.909,0,0,0-3.124.3,1.65,1.65,0,0,0-1.228,1.153,1.389,1.389,0,0,0,.085,1.227,1.883,1.883,0,0,0,1.019.559,2.416,2.416,0,0,0,1.339-.067,4.865,4.865,0,0,0,1.234-.56Z" transform="translate(-436.404 -199.583)" fill="#3d3d3d"/>
      <path id="패스_108" data-name="패스 108" d="M586.662,213.5c-.1.238-.191.447-.259.625l1.064-.265a7.33,7.33,0,0,1,1.008-.176,4.665,4.665,0,0,1,.97-.016,3.68,3.68,0,0,1,.986.232,2.1,2.1,0,0,1,1.512,1.557,4.271,4.271,0,0,1-.273,2.284l-1.7,4.482a1.761,1.761,0,0,0-.144,1.161q.145.4,1.027.729l-.261.689-.882-.334-1.3-.493q-.689-.261-1.306-.483t-.865-.317l.268-.708a1.464,1.464,0,0,0,1.175.106,1.868,1.868,0,0,0,.642-.973l1.705-4.5a1.841,1.841,0,0,0,.082-1.459,1.982,1.982,0,0,0-1.147-.873,2.6,2.6,0,0,0-.636-.088,4.64,4.64,0,0,0-.8.049,6.378,6.378,0,0,0-.806.133c-.264.06-.488.121-.671.183l-1.887,4.979a1.811,1.811,0,0,0-.153,1.157q.135.391,1.037.732l-.268.708c-.188-.085-.484-.209-.89-.369s-.839-.329-1.3-.5-.9-.336-1.306-.483-.7-.248-.873-.3l.268-.708a1.5,1.5,0,0,0,1.194.113,1.869,1.869,0,0,0,.642-.973l1.683-4.442a2.746,2.746,0,0,0,.281-1.263q-.074-.323-.84-.614l.225-.594a5.807,5.807,0,0,0,1.265.129,3.38,3.38,0,0,0,1.209-.243l.728.275C586.9,212.973,586.766,213.258,586.662,213.5Z" transform="translate(-437.288 -199.834)" fill="#3d3d3d"/>
      <path id="패스_109" data-name="패스 109" d="M595.923,224.732q-.364.756-.24,1.043t1.009.712l-.319.665-.507-.243c-.166-.079-.333-.168-.5-.263s-.346-.17-.521-.262-.344-.176-.5-.253q-.553-.265-1.1-.5t-1.043-.478l.319-.665a2.093,2.093,0,0,0,1.151.325q.3-.082.664-.84l2.145-4.468a2.748,2.748,0,0,0,.388-1.234q-.046-.33-.784-.684l.274-.573a5.847,5.847,0,0,0,1.249.237,3.644,3.644,0,0,0,1.244-.13l.683.327c-.2.315-.4.672-.605,1.073s-.381.748-.523,1.043Zm5.035-12.668a1.239,1.239,0,0,1,.644.719,1.226,1.226,0,0,1-.767,1.6,1.26,1.26,0,0,1-.958-.062,1.253,1.253,0,0,1,.119-2.306A1.193,1.193,0,0,1,600.958,212.064Z" transform="translate(-438.327 -199.796)" fill="#3d3d3d"/>
      <path id="패스_110" data-name="패스 110" d="M604.9,221.809q-.215.324-.361.572.572-.044,1.094-.08a7.113,7.113,0,0,1,1.024,0,4.757,4.757,0,0,1,.957.149,3.712,3.712,0,0,1,.932.395,2.1,2.1,0,0,1,1.226,1.793,4.268,4.268,0,0,1-.658,2.2l-2.435,4.129a1.756,1.756,0,0,0-.338,1.12q.077.413.888.892l-.375.636-.812-.479-1.2-.708q-.636-.375-1.206-.7t-.8-.46l.385-.653a1.462,1.462,0,0,0,1.141.3,1.867,1.867,0,0,0,.8-.849l2.445-4.146a1.842,1.842,0,0,0,.328-1.423,1.984,1.984,0,0,0-.983-1.055,2.57,2.57,0,0,0-.611-.193,4.422,4.422,0,0,0-.792-.088,6.611,6.611,0,0,0-.817-.006c-.271.016-.5.037-.694.067l-2.7,4.587a1.8,1.8,0,0,0-.347,1.114q.067.409.9.9l-.386.652q-.253-.172-.813-.515t-1.194-.717q-.635-.373-1.2-.7t-.81-.441l.386-.653q.775.458,1.158.315a1.877,1.877,0,0,0,.8-.849l2.413-4.093a2.741,2.741,0,0,0,.492-1.2q-.018-.331-.724-.748l.323-.547a5.767,5.767,0,0,0,1.225.342,3.365,3.365,0,0,0,1.233-.034l.67.395Q605.11,221.484,604.9,221.809Z" transform="translate(-438.792 -200.537)" fill="#3d3d3d"/>
      <path id="패스_111" data-name="패스 111" d="M636.561,250.474l-3.439,2.684a7.013,7.013,0,0,0-.777.685,1.161,1.161,0,0,0-.328.595,1.018,1.018,0,0,0,.113.677,5.421,5.421,0,0,0,.584.882l-.6.466q-.235-.335-.725-.979t-1.044-1.354q-.542-.695-1.041-1.319c-.334-.415-.585-.721-.755-.916l.581-.454a6.7,6.7,0,0,0,.666.753,1.053,1.053,0,0,0,.575.3,1.258,1.258,0,0,0,.671-.172,6.87,6.87,0,0,0,.932-.637l7.831-6.111a4.674,4.674,0,0,0,.724-.669,1.148,1.148,0,0,0,.276-.579,1.131,1.131,0,0,0-.165-.611,8.229,8.229,0,0,0-.547-.833l.6-.467q.286.4.77,1.037t1.013,1.314q.542.693,1.06,1.341t.875,1.071a6.169,6.169,0,0,1,1.159,2.135,4.089,4.089,0,0,1,.125,1.773,3.467,3.467,0,0,1-.55,1.377,4.23,4.23,0,0,1-.861.945,3.611,3.611,0,0,1-1.239.642,4.2,4.2,0,0,1-1.3.169,4.249,4.249,0,0,1-1.241-.226,4.022,4.022,0,0,1-1.084-.557q-.29.695-.586,1.562t-.551,1.742q-.283.87-.491,1.669t-.324,1.383a5.023,5.023,0,0,0-.145,1.411,2.417,2.417,0,0,0,.555,1.411l-.6.466q-.421-.606-1-1.349t-1.015-1.235q.245-.918.581-1.986t.691-2.177q.368-1.093.733-2.156t.676-1.93Zm.759-.592c.107.159.2.286.274.384a4.146,4.146,0,0,0,.242.344l.233.3a4.821,4.821,0,0,0,1.316,1.22,3.4,3.4,0,0,0,1.306.475,2.824,2.824,0,0,0,1.212-.128,3.469,3.469,0,0,0,1.017-.546,3.356,3.356,0,0,0,1.31-2.049,3.634,3.634,0,0,0-1.02-2.8c-.192-.248-.357-.453-.492-.615s-.277-.316-.425-.46Z" transform="translate(-441.532 -202.484)" fill="#3d3d3d"/>
      <path id="패스_112" data-name="패스 112" d="M647.981,271.722a5.282,5.282,0,0,1-1.968.694,5.476,5.476,0,0,1-1.993-.077,5.069,5.069,0,0,1-1.783-.792,4.614,4.614,0,0,1-1.353-1.473,5.68,5.68,0,0,1-.713-1.921,4.931,4.931,0,0,1,.047-1.962,4.8,4.8,0,0,1,.842-1.8,5.412,5.412,0,0,1,1.647-1.443,5.686,5.686,0,0,1,1.943-.715,5.2,5.2,0,0,1,1.976.027,4.974,4.974,0,0,1,1.783.77,4.626,4.626,0,0,1,1.382,1.5,5.79,5.79,0,0,1,.74,1.988,5.066,5.066,0,0,1-.049,1.977,4.973,4.973,0,0,1-.853,1.784A5.436,5.436,0,0,1,647.981,271.722Zm-1.232-1.651a6.825,6.825,0,0,0,1.222-.932,6.12,6.12,0,0,0,1.019-1.239,3.811,3.811,0,0,0,.477-1.432A2.532,2.532,0,0,0,648.073,264a3.156,3.156,0,0,0-1.35-.276,4.56,4.56,0,0,0-1.465.255,6.744,6.744,0,0,0-2.5,1.483,5.174,5.174,0,0,0-1.008,1.234,3.522,3.522,0,0,0-.532,1.441,2.507,2.507,0,0,0,1.384,2.477,3.3,3.3,0,0,0,1.379.284,5.092,5.092,0,0,0,1.447-.245A6.432,6.432,0,0,0,646.749,270.071Z" transform="translate(-442.55 -204.224)" fill="#3d3d3d"/>
      <path id="패스_113" data-name="패스 113" d="M647.787,277.851q.819-.851,1.633-1.688.806-.856,1.509-1.565t1.055-1.024a1.444,1.444,0,0,0,.447-.706,1.636,1.636,0,0,0-.193-.98l.71-.318q.107.289.362.882t.549,1.246q.285.635.546,1.191c.173.371.3.628.38.772l-.729.327a2.149,2.149,0,0,0-.678-.885q-.27-.126-.649.18l-3.875,3.918,5.4-.179q.577-.014.732-.318a1.156,1.156,0,0,0-.13-.941l.729-.327q.082.234.286.714t.459.995c.157.348.306.675.45.977s.252.52.326.651l-.747.336a1.43,1.43,0,0,0-.731-.828,3.262,3.262,0,0,0-1.182-.131l-12.524.259a1.671,1.671,0,0,1-1.188-.421,2.812,2.812,0,0,1-.77-.989,1.326,1.326,0,0,1-.062-.937,1.01,1.01,0,0,1,.569-.683,1.18,1.18,0,0,1,.836-.061,1.033,1.033,0,0,1,.639.5,2.562,2.562,0,0,1,.159.5,1.2,1.2,0,0,1-.01.577.4.4,0,0,0,.081.357.482.482,0,0,0,.318.182l3.911-.139Q646.967,278.7,647.787,277.851Z" transform="translate(-442.528 -205.054)" fill="#3d3d3d"/>
      <path id="패스_114" data-name="패스 114" d="M652.888,295.029a10.062,10.062,0,0,1-1.1-.683,1.987,1.987,0,0,1-.755-1.013,1.214,1.214,0,0,1,.095-1.056,1.474,1.474,0,0,1,.747-.646,4.768,4.768,0,0,1-1.254-.956,4.318,4.318,0,0,1-1.037-1.739,2.41,2.41,0,0,1,.064-1.833,1.975,1.975,0,0,1,1.319-1.1,2.157,2.157,0,0,1,1.431.025,4.228,4.228,0,0,1,1.312.839,9.559,9.559,0,0,1,1.274,1.445q.628.86,1.319,1.84l1.264-.417a2.172,2.172,0,0,0,1.178-.809,1.68,1.68,0,0,0,.047-1.494,1.962,1.962,0,0,0-.806-1.07,1.414,1.414,0,0,0-1.224-.179,1.079,1.079,0,0,1-.819,0,.9.9,0,0,1-.468-.568.672.672,0,0,1,.037-.637,1.03,1.03,0,0,1,.522-.345,1.515,1.515,0,0,1,1.2.142,8.191,8.191,0,0,1,1.677,1.324,10.664,10.664,0,0,1,.864.89,2.77,2.77,0,0,1,.483.908,2.92,2.92,0,0,1,0,1.985,2.164,2.164,0,0,1-1.458,1.3l-5.252,1.732q-1.011.332-1,.706t.933,1.062Zm2.638-4.622a10.86,10.86,0,0,0-1.945-2.464,1.649,1.649,0,0,0-1.634-.41q-.836.275-.987.735a1.876,1.876,0,0,0,.08,1.159,2.422,2.422,0,0,0,.781,1.091,4.914,4.914,0,0,0,1.137.735Z" transform="translate(-443.374 -206.2)" fill="#3d3d3d"/>
      <path id="패스_115" data-name="패스 115" d="M665.907,295.1a6.062,6.062,0,0,0,.777-.232.842.842,0,0,0,.388-.263.666.666,0,0,0,.072-.44,6.517,6.517,0,0,0-.139-.7l.6-.145a6.127,6.127,0,0,0,.7,1.189,4.282,4.282,0,0,0,.956.936l.18.737c-.367.047-.777.115-1.226.2s-.826.17-1.132.243l-11.74,2.86a1.8,1.8,0,0,0-1.041.528,1.57,1.57,0,0,0-.027,1.229l-.737.179c-.068-.278-.149-.625-.243-1.037s-.191-.832-.294-1.257-.2-.835-.3-1.234-.183-.721-.258-.97l.737-.179q.223.915.537,1.081a1.974,1.974,0,0,0,1.211-.053Z" transform="translate(-443.639 -206.972)" fill="#3d3d3d"/>
      <path id="패스_116" data-name="패스 116" d="M667.506,322.49l-.057-.756a4.211,4.211,0,0,0,2.622-1.575,4.575,4.575,0,0,0,.626-2.985,5.922,5.922,0,0,0-2.233-4.266,6.621,6.621,0,0,0-2.252-1.124,7.877,7.877,0,0,0-2.8-.26,8.667,8.667,0,0,0-3,.741,7.31,7.31,0,0,0-2.243,1.566,6.229,6.229,0,0,0-1.672,4.769,3.437,3.437,0,0,0,1.251,2.555,5.266,5.266,0,0,0,2.763,1.085l.063.837-3.535-.307a4.642,4.642,0,0,1-.5-.866,9.248,9.248,0,0,1-.437-1.158,11.211,11.211,0,0,1-.344-1.288,9.564,9.564,0,0,1-.171-1.179,9.041,9.041,0,0,1,.331-3.352,7.342,7.342,0,0,1,3.937-4.57,9.238,9.238,0,0,1,3.345-.849,7.167,7.167,0,0,1,3.177.448,8.132,8.132,0,0,1,2.608,1.62,8.564,8.564,0,0,1,1.82,2.47,8.028,8.028,0,0,1,.809,2.958,9.527,9.527,0,0,1-.163,2.59,24.041,24.041,0,0,1-.608,2.418Z" transform="translate(-443.913 -208.397)" fill="#3d3d3d"/>
      <path id="패스_117" data-name="패스 117" d="M656.613,335.142a10.339,10.339,0,0,1-.78-1.032,1.98,1.98,0,0,1-.341-1.216,1.215,1.215,0,0,1,.466-.951,1.475,1.475,0,0,1,.929-.335,4.8,4.8,0,0,1-.827-1.342,4.314,4.314,0,0,1-.345-2,2.415,2.415,0,0,1,.718-1.688,1.973,1.973,0,0,1,1.626-.557,2.16,2.16,0,0,1,1.328.536,4.2,4.2,0,0,1,.924,1.254,9.528,9.528,0,0,1,.671,1.806q.278,1.029.571,2.191l1.33.064a2.167,2.167,0,0,0,1.39-.333,1.683,1.683,0,0,0,.579-1.377,1.958,1.958,0,0,0-.368-1.288,1.411,1.411,0,0,0-1.078-.605,1.081,1.081,0,0,1-.765-.294.908.908,0,0,1-.233-.7.675.675,0,0,1,.264-.582,1.028,1.028,0,0,1,.611-.134,1.513,1.513,0,0,1,1.07.564,8.12,8.12,0,0,1,1.091,1.836,10.509,10.509,0,0,1,.488,1.142,2.741,2.741,0,0,1,.126,1.021,2.914,2.914,0,0,1-.716,1.852,2.163,2.163,0,0,1-1.826.691l-5.524-.267q-1.064-.052-1.184.3t.49,1.325Zm4.121-3.369a10.9,10.9,0,0,0-.932-3,1.653,1.653,0,0,0-1.378-.969,1.39,1.39,0,0,0-1.185.333,1.879,1.879,0,0,0-.34,1.111,2.415,2.415,0,0,0,.336,1.3,4.918,4.918,0,0,0,.8,1.094Z" transform="translate(-443.908 -209.855)" fill="#3d3d3d"/>
      <path id="패스_118" data-name="패스 118" d="M664.125,341.311c-.254-.055-.476-.1-.665-.126.167.345.326.673.477.988a7.363,7.363,0,0,1,.378.952,4.737,4.737,0,0,1,.213.946,3.681,3.681,0,0,1-.026,1.012,2.1,2.1,0,0,1-1.217,1.8,4.267,4.267,0,0,1-2.291.2l-4.734-.749a1.767,1.767,0,0,0-1.166.1c-.238.15-.4.534-.5,1.154l-.729-.115c.03-.19.079-.5.147-.931s.141-.89.218-1.375.146-.946.207-1.378.106-.737.134-.912l.749.119a1.462,1.462,0,0,0,.136,1.172,1.866,1.866,0,0,0,1.082.431l4.754.75a1.838,1.838,0,0,0,1.444-.217,1.982,1.982,0,0,0,.62-1.3,2.554,2.554,0,0,0-.044-.639,4.611,4.611,0,0,0-.21-.77,6.723,6.723,0,0,0-.294-.761c-.114-.246-.219-.453-.316-.62l-5.26-.832a1.816,1.816,0,0,0-1.164.086q-.354.213-.505,1.164l-.749-.119c.046-.2.106-.516.181-.946s.15-.889.227-1.374.146-.945.207-1.378.1-.738.114-.915l.748.119a1.5,1.5,0,0,0,.133,1.192,1.866,1.866,0,0,0,1.083.43l4.693.741a2.757,2.757,0,0,0,1.293.018q.3-.14.429-.948l.627.1a5.743,5.743,0,0,0,.132,1.265,3.36,3.36,0,0,0,.484,1.134l-.121.769Q664.505,341.391,664.125,341.311Z" transform="translate(-443.764 -210.799)" fill="#3d3d3d"/>
      <path id="패스_119" data-name="패스 119" d="M654.63,352.768q-.815-.2-1.07-.022a2.2,2.2,0,0,0-.491,1.134l-.716-.177.134-.546c.045-.18.1-.36.155-.543s.1-.374.15-.564.1-.372.145-.543q.148-.6.27-1.178c.081-.389.167-.761.254-1.119l.716.177a2.088,2.088,0,0,0-.083,1.192q.142.278.957.48l4.812,1.188a2.742,2.742,0,0,0,1.286.128q.313-.112.51-.908l.616.152a5.719,5.719,0,0,0,.024,1.272,3.624,3.624,0,0,0,.38,1.191l-.182.736q-.522-.193-1.174-.375t-1.128-.3Zm13.429,2.345a1.239,1.239,0,0,1-.572.777,1.19,1.19,0,0,1-.946.157,1.178,1.178,0,0,1-.774-.582,1.253,1.253,0,0,1-.134-.951,1.252,1.252,0,0,1,2.28-.354A1.188,1.188,0,0,1,668.058,355.113Z" transform="translate(-443.631 -211.9)" fill="#3d3d3d"/>
      <path id="패스_120" data-name="패스 120" d="M659.606,360.854c-.242-.1-.453-.175-.634-.237q.159.551.3,1.055a7.191,7.191,0,0,1,.212,1,4.656,4.656,0,0,1,.048.969,3.667,3.667,0,0,1-.2.993,2.1,2.1,0,0,1-1.506,1.564,4.257,4.257,0,0,1-2.291-.2L651,364.461a1.766,1.766,0,0,0-1.165-.1q-.388.16-.693,1.052l-.7-.238q.093-.271.3-.892t.449-1.318q.237-.7.438-1.322t.287-.875l.718.244a1.467,1.467,0,0,0-.066,1.178,1.872,1.872,0,0,0,.994.608l4.556,1.55a1.844,1.844,0,0,0,1.461.031,1.974,1.974,0,0,0,.833-1.177,2.547,2.547,0,0,0,.066-.637,4.531,4.531,0,0,0-.076-.793,6.628,6.628,0,0,0-.161-.8c-.07-.262-.139-.484-.206-.666L653,358.587a1.808,1.808,0,0,0-1.162-.114q-.387.149-.7,1.06l-.718-.243c.079-.19.191-.491.339-.9s.3-.85.458-1.315.3-.906.439-1.322.223-.71.267-.882l.718.243a1.5,1.5,0,0,0-.072,1.2,1.868,1.868,0,0,0,.994.608l4.5,1.53a2.765,2.765,0,0,0,1.271.238q.321-.086.585-.862l.6.2a5.765,5.765,0,0,0-.086,1.269,3.365,3.365,0,0,0,.284,1.2l-.251.737Q659.968,361,659.606,360.854Z" transform="translate(-443.287 -212.399)" fill="#3d3d3d"/>
      <path id="패스_121" data-name="패스 121" d="M637.222,397.707l-3.322-2.828a6.959,6.959,0,0,0-.827-.624,1.162,1.162,0,0,0-.648-.2,1.022,1.022,0,0,0-.641.247,5.428,5.428,0,0,0-.746.75l-.577-.491q.28-.3.813-.907t1.116-1.3q.572-.67,1.081-1.286c.339-.409.589-.719.746-.925l.562.479a6.636,6.636,0,0,0-.6.8,1.043,1.043,0,0,0-.182.624,1.242,1.242,0,0,0,.3.623,6.969,6.969,0,0,0,.811.784l7.564,6.439a4.755,4.755,0,0,0,.8.575,1.149,1.149,0,0,0,.623.153,1.127,1.127,0,0,0,.566-.285,8.376,8.376,0,0,0,.706-.7l.577.491q-.335.36-.86.962T644,402.349q-.572.672-1.1,1.309t-.873,1.072a6.193,6.193,0,0,1-1.856,1.566,4.087,4.087,0,0,1-1.712.479,3.488,3.488,0,0,1-1.46-.26,4.264,4.264,0,0,1-1.1-.653,3.627,3.627,0,0,1-.879-1.085,4.163,4.163,0,0,1-.455-2.5,4.029,4.029,0,0,1,.327-1.174q-.738-.144-1.649-.259t-1.816-.189q-.91-.1-1.733-.144c-.55-.029-1.023-.041-1.42-.038a4.994,4.994,0,0,0-1.412.142,2.418,2.418,0,0,0-1.27.828l-.576-.491q.509-.536,1.12-1.253t1-1.242q.949.053,2.062.168t2.271.239q1.145.141,2.26.284t2.027.273Zm.733.624c-.134.137-.242.252-.321.346-.1.095-.194.2-.287.306s-.175.206-.246.288a4.824,4.824,0,0,0-.929,1.536,3.378,3.378,0,0,0-.2,1.375,2.819,2.819,0,0,0,.369,1.161,3.449,3.449,0,0,0,.74.885,3.349,3.349,0,0,0,2.27.871,3.64,3.64,0,0,0,2.541-1.562c.2-.24.371-.441.5-.607s.254-.336.366-.51Z" transform="translate(-441.221 -215.51)" fill="#3d3d3d"/>
      <path id="패스_122" data-name="패스 122" d="M619.62,413.078a5.3,5.3,0,0,1-1.077-1.788,5.492,5.492,0,0,1-.328-1.967,5.088,5.088,0,0,1,.416-1.908,4.615,4.615,0,0,1,1.171-1.622,5.658,5.658,0,0,1,1.737-1.087,4.952,4.952,0,0,1,1.932-.352,4.827,4.827,0,0,1,1.934.46,5.441,5.441,0,0,1,1.745,1.322,5.688,5.688,0,0,1,1.092,1.759,5.206,5.206,0,0,1,.373,1.94,4.969,4.969,0,0,1-.394,1.9,4.613,4.613,0,0,1-1.194,1.659,5.806,5.806,0,0,1-1.8,1.126,5.077,5.077,0,0,1-1.947.351,4.977,4.977,0,0,1-1.919-.475A5.447,5.447,0,0,1,619.62,413.078Zm1.369-1.541a6.873,6.873,0,0,0,1.16,1.009,6.068,6.068,0,0,0,1.419.746,3.811,3.811,0,0,0,1.5.178,2.532,2.532,0,0,0,2.139-1.864,3.151,3.151,0,0,0,0-1.378,4.562,4.562,0,0,0-.546-1.383,6.713,6.713,0,0,0-1.958-2.151,5.167,5.167,0,0,0-1.412-.739,3.524,3.524,0,0,0-1.518-.229,2.508,2.508,0,0,0-2.146,1.856,3.281,3.281,0,0,0,0,1.407,5.073,5.073,0,0,0,.532,1.368A6.413,6.413,0,0,0,620.989,411.537Z" transform="translate(-440.621 -216.763)" fill="#3d3d3d"/>
      <path id="패스_123" data-name="패스 123" d="M613.668,414.17q1,.629,1.984,1.256,1,.616,1.838,1.16t1.216.826a1.433,1.433,0,0,0,.782.294,1.623,1.623,0,0,0,.919-.388l.457.631q-.261.163-.79.533t-1.11.79q-.564.409-1.056.777t-.678.529l-.469-.647a2.138,2.138,0,0,0,.729-.842q.068-.291-.307-.6l-4.623-3,1.27,5.249c.086.375.24.594.46.653a1.161,1.161,0,0,0,.895-.319l.468.647q-.211.127-.64.426t-.882.65q-.464.337-.865.638t-.571.451l-.481-.663a1.429,1.429,0,0,0,.663-.884,3.285,3.285,0,0,0-.111-1.184l-2.794-12.21a1.668,1.668,0,0,1,.171-1.248,2.831,2.831,0,0,1,.812-.956,1.331,1.331,0,0,1,.905-.252,1.013,1.013,0,0,1,.784.419,1.182,1.182,0,0,1,.23.807,1.041,1.041,0,0,1-.358.728,2.755,2.755,0,0,1-.46.256,1.188,1.188,0,0,1-.567.107.4.4,0,0,0-.333.152.489.489,0,0,0-.114.348l.93,3.8Q612.669,413.539,613.668,414.17Z" transform="translate(-439.89 -216.95)" fill="#3d3d3d"/>
      <path id="패스_124" data-name="패스 124" d="M597.752,422.594a10.229,10.229,0,0,1,.445-1.215,1.986,1.986,0,0,1,.838-.946,1.216,1.216,0,0,1,1.052-.121,1.462,1.462,0,0,1,.784.6,4.812,4.812,0,0,1,.681-1.422,4.326,4.326,0,0,1,1.492-1.369,2.416,2.416,0,0,1,1.807-.311,1.978,1.978,0,0,1,1.349,1.067,2.163,2.163,0,0,1,.268,1.406,4.224,4.224,0,0,1-.555,1.455,9.523,9.523,0,0,1-1.155,1.542q-.715.792-1.534,1.666l.666,1.153a2.16,2.16,0,0,0,1.032.988,1.681,1.681,0,0,0,1.471-.257,1.957,1.957,0,0,0,.884-1.007,1.42,1.42,0,0,0-.074-1.236,1.084,1.084,0,0,1-.168-.8.907.907,0,0,1,.461-.574.675.675,0,0,1,.632-.093,1.037,1.037,0,0,1,.444.441,1.508,1.508,0,0,1,.1,1.2,8.131,8.131,0,0,1-.954,1.911,10.308,10.308,0,0,1-.7,1.028,2.735,2.735,0,0,1-.791.658,2.916,2.916,0,0,1-1.944.4,2.165,2.165,0,0,1-1.57-1.163l-2.765-4.789q-.532-.923-.895-.832t-.85,1.129Zm5.062,1.641a10.9,10.9,0,0,0,2.016-2.405,1.651,1.651,0,0,0,.069-1.683q-.44-.763-.921-.817a1.878,1.878,0,0,0-1.119.315,2.432,2.432,0,0,0-.909.986,4.967,4.967,0,0,0-.489,1.264Z" transform="translate(-438.817 -217.944)" fill="#3d3d3d"/>
      <path id="패스_125" data-name="패스 125" d="M600.525,435.354a6.083,6.083,0,0,0,.385.713.84.84,0,0,0,.336.326.668.668,0,0,0,.445-.018,6.537,6.537,0,0,0,.66-.281l.264.555a6.062,6.062,0,0,0-1.02.928,4.242,4.242,0,0,0-.723,1.127l-.684.325q-.182-.527-.45-1.159t-.469-1.058l-5.2-10.91a1.808,1.808,0,0,0-.729-.912,1.579,1.579,0,0,0-1.209.225l-.325-.684q.388-.186.966-.45t1.169-.545l1.147-.546c.369-.176.669-.326.9-.449l.326.684q-.851.4-.949.747a1.979,1.979,0,0,0,.3,1.174Z" transform="translate(-438.293 -218.366)" fill="#3d3d3d"/>
      <path id="패스_126" data-name="패스 126" d="M573.554,442.566l.728-.209a4.212,4.212,0,0,0,2.075,2.248,4.573,4.573,0,0,0,3.05.007,5.93,5.93,0,0,0,3.724-3.054,6.63,6.63,0,0,0,.643-2.434,7.858,7.858,0,0,0-.315-2.8,8.653,8.653,0,0,0-1.336-2.792,7.308,7.308,0,0,0-1.99-1.877,6.222,6.222,0,0,0-5.009-.668,3.439,3.439,0,0,0-2.248,1.743,5.269,5.269,0,0,0-.5,2.926l-.807.232-.418-3.523a4.609,4.609,0,0,1,.748-.663,9.092,9.092,0,0,1,1.045-.663,10.778,10.778,0,0,1,1.192-.6,9.783,9.783,0,0,1,1.119-.409,9.04,9.04,0,0,1,3.35-.356,7.335,7.335,0,0,1,5.274,2.925,9.242,9.242,0,0,1,1.512,3.1,7.161,7.161,0,0,1,.207,3.2,8.118,8.118,0,0,1-1.057,2.883,8.554,8.554,0,0,1-2.049,2.284,7.993,7.993,0,0,1-2.732,1.393,9.449,9.449,0,0,1-2.57.366,23.906,23.906,0,0,1-2.491-.1Z" transform="translate(-436.471 -218.993)" fill="#3d3d3d"/>
      <path id="패스_127" data-name="패스 127" d="M559.309,434.371a10.017,10.017,0,0,1,.854-.972,1.973,1.973,0,0,1,1.123-.577,1.21,1.21,0,0,1,1.026.266,1.473,1.473,0,0,1,.514.842,4.773,4.773,0,0,1,1.149-1.079,4.319,4.319,0,0,1,1.886-.738,2.413,2.413,0,0,1,1.8.365,1.973,1.973,0,0,1,.872,1.482,2.16,2.16,0,0,1-.259,1.408,4.206,4.206,0,0,1-1.044,1.155,9.465,9.465,0,0,1-1.634,1.02q-.953.479-2.033,1l.2,1.315a2.184,2.184,0,0,0,.6,1.3,1.688,1.688,0,0,0,1.465.292,1.956,1.956,0,0,0,1.189-.62,1.416,1.416,0,0,0,.378-1.177,1.079,1.079,0,0,1,.134-.809.906.906,0,0,1,.637-.367.678.678,0,0,1,.624.141,1.045,1.045,0,0,1,.254.573,1.517,1.517,0,0,1-.338,1.162,8.241,8.241,0,0,1-1.581,1.436,10.765,10.765,0,0,1-1.019.707,2.747,2.747,0,0,1-.976.326,2.916,2.916,0,0,1-1.958-.328,2.168,2.168,0,0,1-1.043-1.652l-.846-5.465q-.163-1.052-.533-1.1t-1.2.746Zm4.125,3.361a10.9,10.9,0,0,0,2.751-1.514,1.648,1.648,0,0,0,.672-1.545,1.386,1.386,0,0,0-.563-1.093,1.873,1.873,0,0,0-1.157-.111,2.423,2.423,0,0,0-1.2.59,4.87,4.87,0,0,0-.913,1Z" transform="translate(-435.427 -219.207)" fill="#3d3d3d"/>
      <path id="패스_128" data-name="패스 128" d="M554.589,443.063q0-.39-.011-.676-.455.347-.872.664a7.178,7.178,0,0,1-.856.562,4.7,4.7,0,0,1-.884.4,3.649,3.649,0,0,1-1,.178,2.1,2.1,0,0,1-2.005-.832,4.263,4.263,0,0,1-.653-2.2l-.216-4.788a1.761,1.761,0,0,0-.327-1.122,1.647,1.647,0,0,0-1.232-.263l-.034-.737c.191-.009.505-.022.942-.043l1.391-.062q.736-.034,1.391-.073c.436-.027.743-.044.92-.052l.034.757q-.878.04-1.121.368a1.867,1.867,0,0,0-.2,1.147l.217,4.808a1.84,1.84,0,0,0,.5,1.371,1.973,1.973,0,0,0,1.4.346,2.534,2.534,0,0,0,.618-.171,4.426,4.426,0,0,0,.711-.361,6.307,6.307,0,0,0,.688-.44c.219-.161.4-.305.544-.435l-.24-5.319a1.813,1.813,0,0,0-.317-1.124c-.187-.2-.6-.29-1.242-.262l-.035-.757q.308.007.963-.013c.438-.013.9-.03,1.392-.052s.955-.047,1.391-.073.743-.051.919-.073l.035.758q-.9.04-1.142.369a1.858,1.858,0,0,0-.2,1.147l.213,4.746a2.734,2.734,0,0,0,.243,1.27c.13.18.47.255,1.014.231l.029.635a5.761,5.761,0,0,0-1.213.383,3.36,3.36,0,0,0-1.014.7l-.778.035C554.573,443.637,554.587,443.322,554.589,443.063Z" transform="translate(-434.298 -219.353)" fill="#3d3d3d"/>
      <path id="패스_129" data-name="패스 129" d="M542.05,436q.033-.84-.2-1.053a2.2,2.2,0,0,0-1.21-.251l.028-.737.563.022c.185.006.372.02.563.041s.386.018.583.034.386.025.563.032q.614.022,1.208.026c.4,0,.779.009,1.147.023l-.028.737a2.088,2.088,0,0,0-1.185.16q-.242.194-.275,1.035l-.19,4.951a2.745,2.745,0,0,0,.135,1.287c.116.189.447.294.992.315l-.025.635a5.749,5.749,0,0,0-1.24.281,3.6,3.6,0,0,0-1.09.614l-.757-.029q.082-.55.129-1.225t.066-1.165Zm.419,13.625a1.232,1.232,0,0,1-.875-.4,1.223,1.223,0,0,1,.067-1.77,1.253,1.253,0,0,1,.9-.325,1.227,1.227,0,0,1,1.2,1.3,1.222,1.222,0,0,1-.392.867A1.2,1.2,0,0,1,542.469,449.621Z" transform="translate(-433.781 -219.373)" fill="#3d3d3d"/>
      <path id="패스_130" data-name="패스 130" d="M534.618,442.626c.045-.257.079-.48.1-.669q-.507.268-.971.51a7.362,7.362,0,0,1-.938.411,4.752,4.752,0,0,1-.937.245,3.718,3.718,0,0,1-1.013.009,2.1,2.1,0,0,1-1.838-1.155,4.263,4.263,0,0,1-.275-2.283l.586-4.757a1.764,1.764,0,0,0-.135-1.162,1.656,1.656,0,0,0-1.171-.464l.09-.732.935.116,1.382.171q.732.09,1.384.16c.434.047.74.081.915.1l-.093.751a1.463,1.463,0,0,0-1.166.176,1.866,1.866,0,0,0-.394,1.1l-.589,4.778a1.845,1.845,0,0,0,.266,1.436,1.985,1.985,0,0,0,1.322.575,2.589,2.589,0,0,0,.637-.067,4.485,4.485,0,0,0,.762-.235,6.67,6.67,0,0,0,.751-.32c.242-.122.445-.234.609-.338l.651-5.285a1.8,1.8,0,0,0-.125-1.16q-.224-.349-1.181-.466l.093-.751c.2.038.519.087.952.148s.893.12,1.381.181.949.113,1.383.16.741.074.919.082l-.093.752a1.5,1.5,0,0,0-1.187.173,1.867,1.867,0,0,0-.393,1.1l-.582,4.716a2.768,2.768,0,0,0,.026,1.293c.1.2.42.331.963.4l-.078.63a5.77,5.77,0,0,0-1.26.175,3.369,3.369,0,0,0-1.117.523l-.772-.1C534.507,443.19,534.573,442.882,534.618,442.626Z" transform="translate(-432.669 -219.251)" fill="#3d3d3d"/>
      <path id="패스_131" data-name="패스 131" d="M493.64,428.221l2.1-3.824a7.1,7.1,0,0,0,.443-.936,1.173,1.173,0,0,0,.068-.676,1.024,1.024,0,0,0-.372-.578,5.491,5.491,0,0,0-.886-.579l.365-.664q.35.215,1.054.612t1.495.833q.771.423,1.477.8c.47.25.822.431,1.056.544l-.355.647a6.594,6.594,0,0,0-.909-.43,1.048,1.048,0,0,0-.648-.051,1.227,1.227,0,0,0-.548.424,6.819,6.819,0,0,0-.6.953L492.6,434a4.779,4.779,0,0,0-.4.9,1.152,1.152,0,0,0-.024.641,1.124,1.124,0,0,0,.394.5,8.083,8.083,0,0,0,.831.549l-.364.665q-.421-.254-1.117-.647t-1.45-.807q-.771-.424-1.5-.813t-1.227-.637a6.174,6.174,0,0,1-1.908-1.5,4.061,4.061,0,0,1-.815-1.58,3.45,3.45,0,0,1-.04-1.482,4.213,4.213,0,0,1,.417-1.207,3.618,3.618,0,0,1,.884-1.08,4.159,4.159,0,0,1,1.125-.668,4.241,4.241,0,0,1,1.229-.283,4.037,4.037,0,0,1,1.216.082q-.008-.751-.079-1.667t-.182-1.816q-.085-.911-.21-1.726t-.25-1.4a4.974,4.974,0,0,0-.425-1.354,2.412,2.412,0,0,0-1.068-1.077l.365-.664q.626.39,1.453.844t1.42.731q.139.941.253,2.053t.225,2.272q.094,1.15.18,2.271t.142,2.041Zm-.462.844q-.242-.156-.4-.244-.17-.116-.358-.22l-.333-.182a4.82,4.82,0,0,0-1.691-.6,3.4,3.4,0,0,0-1.388.08,2.827,2.827,0,0,0-1.062.6,3.477,3.477,0,0,0-.718.9,3.352,3.352,0,0,0-.393,2.4,3.634,3.634,0,0,0,2.043,2.172c.276.15.508.274.7.369a5.863,5.863,0,0,0,.572.256Z" transform="translate(-428.867 -217.871)" fill="#3d3d3d"/>
      <path id="패스_132" data-name="패스 132" d="M475.429,413.943a5.3,5.3,0,0,1,1.534-1.415,5.494,5.494,0,0,1,1.861-.717,5.04,5.04,0,0,1,1.951.024,4.6,4.6,0,0,1,1.825.819,5.693,5.693,0,0,1,1.414,1.483,4.944,4.944,0,0,1,.733,1.822,4.807,4.807,0,0,1-.061,1.987,5.437,5.437,0,0,1-.943,1.976,5.694,5.694,0,0,1-1.5,1.424,5.2,5.2,0,0,1-1.825.756,4.983,4.983,0,0,1-1.941,0,4.625,4.625,0,0,1-1.864-.835,5.8,5.8,0,0,1-1.466-1.534,5.033,5.033,0,0,1-.735-1.836,4.937,4.937,0,0,1,.078-1.975A5.436,5.436,0,0,1,475.429,413.943Zm1.784,1.03a6.879,6.879,0,0,0-.755,1.339,6.109,6.109,0,0,0-.445,1.54,3.807,3.807,0,0,0,.128,1.5,2.531,2.531,0,0,0,2.257,1.72,3.143,3.143,0,0,0,1.349-.28,4.555,4.555,0,0,0,1.245-.813,6.718,6.718,0,0,0,1.713-2.351,5.168,5.168,0,0,0,.439-1.533,3.525,3.525,0,0,0-.081-1.532,2.509,2.509,0,0,0-2.25-1.729,3.3,3.3,0,0,0-1.378.284,5.079,5.079,0,0,0-1.233.8A6.406,6.406,0,0,0,477.213,414.973Z" transform="translate(-427.935 -217.413)" fill="#3d3d3d"/>
      <path id="패스_133" data-name="패스 133" d="M472.472,408.28q-.416,1.107-.832,2.2t-.766,2.034q-.365.929-.564,1.358a1.446,1.446,0,0,0-.13.825,1.633,1.633,0,0,0,.565.823l-.526.574q-.212-.223-.681-.666t-1-.928c-.342-.313-.667-.606-.973-.877s-.525-.458-.656-.559l.54-.588a2.131,2.131,0,0,0,.973.543q.3.01.525-.421l2.008-5.132-4.886,2.3c-.351.16-.532.355-.547.583s.15.5.492.812l-.54.589c-.111-.121-.294-.3-.545-.542s-.524-.484-.815-.733-.549-.5-.8-.719-.437-.377-.557-.468l.553-.6a1.421,1.421,0,0,0,1,.471,3.28,3.28,0,0,0,1.138-.347l11.4-5.2a1.672,1.672,0,0,1,1.257-.085,2.839,2.839,0,0,1,1.1.6,1.326,1.326,0,0,1,.429.836,1.011,1.011,0,0,1-.253.853,1.178,1.178,0,0,1-.744.388,1.038,1.038,0,0,1-.784-.205,2.568,2.568,0,0,1-.344-.4,1.2,1.2,0,0,1-.22-.534.4.4,0,0,0-.215-.3.487.487,0,0,0-.365-.042l-3.536,1.677Q472.888,407.175,472.472,408.28Z" transform="translate(-426.914 -216.682)" fill="#3d3d3d"/>
      <path id="패스_134" data-name="패스 134" d="M461.692,394.456a9.978,9.978,0,0,1,1.28.191,1.978,1.978,0,0,1,1.1.629,1.217,1.217,0,0,1,.333,1.007,1.476,1.476,0,0,1-.429.889,4.758,4.758,0,0,1,1.53.379,4.311,4.311,0,0,1,1.642,1.183,2.416,2.416,0,0,1,.669,1.708,1.975,1.975,0,0,1-.772,1.536,2.164,2.164,0,0,1-1.323.546,4.229,4.229,0,0,1-1.537-.25,9.579,9.579,0,0,1-1.743-.82q-.919-.542-1.941-1.166l-.995.885a2.174,2.174,0,0,0-.76,1.211,1.68,1.68,0,0,0,.55,1.389,1.961,1.961,0,0,0,1.164.663,1.418,1.418,0,0,0,1.194-.322,1.083,1.083,0,0,1,.751-.326.911.911,0,0,1,.656.336.671.671,0,0,1,.218.6,1.04,1.04,0,0,1-.342.524,1.515,1.515,0,0,1-1.159.346,8.135,8.135,0,0,1-2.064-.549,10.51,10.51,0,0,1-1.147-.473,2.755,2.755,0,0,1-.8-.642,2.92,2.92,0,0,1-.785-1.823,2.165,2.165,0,0,1,.822-1.773l4.132-3.675c.531-.472.742-.819.634-1.043s-.533-.425-1.277-.6Zm-.585,5.289a10.933,10.933,0,0,0,2.764,1.49,1.651,1.651,0,0,0,1.662-.273q.659-.585.615-1.067a1.878,1.878,0,0,0-.535-1.032,2.41,2.41,0,0,0-1.149-.691,4.875,4.875,0,0,0-1.336-.223Z" transform="translate(-426.403 -215.89)" fill="#3d3d3d"/>
      <path id="패스_135" data-name="패스 135" d="M449.282,399.707a6.4,6.4,0,0,0-.62.522.847.847,0,0,0-.252.4.67.67,0,0,0,.109.432,6.6,6.6,0,0,0,.408.589l-.49.371a6.11,6.11,0,0,0-1.116-.812,4.272,4.272,0,0,0-1.25-.48l-.458-.6q.479-.285,1.043-.675t.941-.674l9.631-7.3a1.816,1.816,0,0,0,.745-.9q.093-.4-.464-1.138l.6-.458q.26.342.636.855t.771,1.035l.767,1.011q.372.491.623.788l-.6.458q-.569-.751-.924-.778a1.969,1.969,0,0,0-1.089.53Z" transform="translate(-425.402 -215.407)" fill="#3d3d3d"/>
      <path id="패스_136" data-name="패스 136" d="M436.678,374.773l.353.67a4.214,4.214,0,0,0-1.778,2.489,4.576,4.576,0,0,0,.614,2.986,5.929,5.929,0,0,0,3.749,3.025,6.594,6.594,0,0,0,2.514.133,7.843,7.843,0,0,0,2.674-.877,8.669,8.669,0,0,0,2.46-1.877,7.308,7.308,0,0,0,1.433-2.331,6.228,6.228,0,0,0-.366-5.04,3.436,3.436,0,0,0-2.166-1.845,5.246,5.246,0,0,0-2.966.106l-.391-.743,3.366-1.127a4.654,4.654,0,0,1,.8.6,9.188,9.188,0,0,1,.862.888,10.9,10.9,0,0,1,.829,1.045,9.839,9.839,0,0,1,.627,1.012,9.055,9.055,0,0,1,1.03,3.207,7.4,7.4,0,0,1-.272,3.061,7.5,7.5,0,0,1-1.517,2.7,9.277,9.277,0,0,1-2.731,2.112,7.166,7.166,0,0,1-3.091.854,8.116,8.116,0,0,1-3.037-.448,8.559,8.559,0,0,1-2.653-1.54,8.013,8.013,0,0,1-1.921-2.392,9.494,9.494,0,0,1-.882-2.44,23.943,23.943,0,0,1-.406-2.46Z" transform="translate(-424.361 -213.764)" fill="#3d3d3d"/>
      <path id="패스_137" data-name="패스 137" d="M442.332,359.163a10.308,10.308,0,0,1,1.125.638,1.973,1.973,0,0,1,.8.982,1.214,1.214,0,0,1-.052,1.059,1.471,1.471,0,0,1-.72.675,4.8,4.8,0,0,1,1.291.9,4.321,4.321,0,0,1,1.107,1.7,2.418,2.418,0,0,1,.01,1.834,1.977,1.977,0,0,1-1.273,1.155,2.167,2.167,0,0,1-1.432.034,4.219,4.219,0,0,1-1.345-.786,9.47,9.47,0,0,1-1.331-1.392q-.663-.834-1.391-1.786l-1.246.468a2.174,2.174,0,0,0-1.145.856,1.687,1.687,0,0,0,.014,1.494,1.96,1.96,0,0,0,.849,1.038,1.415,1.415,0,0,0,1.229.129,1.082,1.082,0,0,1,.819-.033.909.909,0,0,1,.491.549.672.672,0,0,1-.013.638,1.022,1.022,0,0,1-.508.366,1.51,1.51,0,0,1-1.205-.095,8.112,8.112,0,0,1-1.728-1.255,10.5,10.5,0,0,1-.9-.854,2.74,2.74,0,0,1-.519-.888,2.919,2.919,0,0,1-.078-1.983,2.166,2.166,0,0,1,1.405-1.358l5.177-1.942q1-.375.967-.746t-.975-1.024Zm-2.449,4.725a10.932,10.932,0,0,0,2.042,2.384,1.65,1.65,0,0,0,1.649.344q.825-.309.956-.774a1.876,1.876,0,0,0-.127-1.155,2.418,2.418,0,0,0-.823-1.059,4.89,4.89,0,0,0-1.167-.689Z" transform="translate(-424.469 -212.778)" fill="#3d3d3d"/>
      <path id="패스_138" data-name="패스 138" d="M432.879,356.29c.255-.05.475-.1.661-.147q-.434-.375-.828-.718a7.437,7.437,0,0,1-.724-.725,4.744,4.744,0,0,1-.57-.784,3.706,3.706,0,0,1-.377-.94,2.1,2.1,0,0,1,.409-2.133,4.258,4.258,0,0,1,2.027-1.087l4.644-1.183a1.761,1.761,0,0,0,1.034-.548,1.651,1.651,0,0,0,.006-1.259l.715-.182q.07.279.233.914t.344,1.349q.181.714.353,1.347t.238.891l-.735.187q-.218-.853-.588-1.023a1.866,1.866,0,0,0-1.164.032l-4.664,1.187a1.842,1.842,0,0,0-1.241.771,1.978,1.978,0,0,0-.057,1.441,2.6,2.6,0,0,0,.294.571,4.609,4.609,0,0,0,.5.624,6.642,6.642,0,0,0,.572.584q.3.272.535.444l5.161-1.313a1.809,1.809,0,0,0,1.035-.539,1.641,1.641,0,0,0,0-1.269l.734-.187c.038.2.108.515.208.941s.212.875.334,1.351.24.925.354,1.348.2.717.257.885l-.734.187q-.223-.873-.594-1.043a1.873,1.873,0,0,0-1.164.032l-4.6,1.173a2.75,2.75,0,0,0-1.2.5q-.222.246-.02,1.04l-.615.157a5.826,5.826,0,0,0-.621-1.111,3.353,3.353,0,0,0-.894-.85l-.192-.755C432.313,356.392,432.624,356.342,432.879,356.29Z" transform="translate(-424.107 -211.669)" fill="#3d3d3d"/>
      <path id="패스_139" data-name="패스 139" d="M423.465,345.7a1.237,1.237,0,0,1,.219-.939,1.19,1.19,0,0,1,.807-.517,1.177,1.177,0,0,1,.941.229,1.25,1.25,0,0,1,.5.82,1.253,1.253,0,0,1-1.957,1.227A1.2,1.2,0,0,1,423.465,345.7Zm13.263-3.147q.829-.137.992-.4a2.2,2.2,0,0,0,0-1.235l.728-.12c.031.189.062.374.091.556s.055.368.072.558.059.382.085.578.053.383.082.557q.1.606.217,1.189t.207,1.129l-.727.119a2.09,2.09,0,0,0-.395-1.128q-.239-.2-1.069-.062l-4.89.808a2.777,2.777,0,0,0-1.233.39q-.242.227-.109,1.036l-.626.1a5.812,5.812,0,0,0-.524-1.159,3.611,3.611,0,0,0-.82-.944l-.124-.748q.557-.029,1.226-.12t1.155-.171Z" transform="translate(-423.447 -211.159)" fill="#3d3d3d"/>
      <path id="패스_140" data-name="패스 140" d="M429.249,336.617q.388-.01.675-.033-.364-.443-.694-.849a7.212,7.212,0,0,1-.59-.837,4.652,4.652,0,0,1-.429-.87,3.686,3.686,0,0,1-.212-.989,2.105,2.105,0,0,1,.763-2.033,4.264,4.264,0,0,1,2.182-.727l4.778-.379a1.755,1.755,0,0,0,1.111-.366,1.65,1.65,0,0,0,.221-1.24l.735-.057c.015.191.04.5.074.939s.072.9.11,1.388.079.953.12,1.388.069.741.083.917l-.755.06c-.046-.584-.181-.955-.407-1.108a1.866,1.866,0,0,0-1.153-.165l-4.8.38a1.836,1.836,0,0,0-1.353.549,1.983,1.983,0,0,0-.3,1.411,2.578,2.578,0,0,0,.192.611,4.508,4.508,0,0,0,.384.7,6.8,6.8,0,0,0,.464.672q.252.319.453.529l5.308-.421a1.814,1.814,0,0,0,1.112-.355,1.649,1.649,0,0,0,.22-1.25l.755-.06q0,.308.046.962c.027.437.061.9.1,1.39s.078.953.119,1.387.077.741.1.916l-.756.06q-.071-.9-.408-1.129a1.873,1.873,0,0,0-1.153-.165l-4.737.376a2.76,2.76,0,0,0-1.261.284q-.261.207-.2,1.022l-.634.05a5.806,5.806,0,0,0-.423-1.2,3.37,3.37,0,0,0-.736-.989l-.062-.776Q428.859,336.627,429.249,336.617Z" transform="translate(-423.847 -210.051)" fill="#3d3d3d"/>
      <path id="패스_141" data-name="패스 141" d="M434.229,293.817l4.172,1.275a6.943,6.943,0,0,0,1.007.243,1.161,1.161,0,0,0,.676-.072,1.017,1.017,0,0,0,.49-.481,5.435,5.435,0,0,0,.387-.985l.724.222q-.138.386-.385,1.156t-.51,1.632q-.257.843-.481,1.609c-.149.512-.255.893-.317,1.145l-.706-.216a6.623,6.623,0,0,0,.234-.977,1.05,1.05,0,0,0-.08-.646,1.25,1.25,0,0,0-.527-.45,6.908,6.908,0,0,0-1.056-.4l-9.5-2.9a4.818,4.818,0,0,0-.964-.209,1.138,1.138,0,0,0-.632.108,1.12,1.12,0,0,0-.406.486,8.063,8.063,0,0,0-.368.926l-.725-.221c.109-.31.244-.718.407-1.226s.326-1.035.494-1.583.335-1.108.49-1.639.28-.975.375-1.331a6.159,6.159,0,0,1,1.082-2.175,4.08,4.08,0,0,1,1.38-1.121,3.476,3.476,0,0,1,1.443-.341,4.276,4.276,0,0,1,1.267.162,3.631,3.631,0,0,1,1.237.646,4.177,4.177,0,0,1,1.411,2.112,4.04,4.04,0,0,1,.167,1.207q.734-.161,1.615-.417t1.742-.549q.874-.268,1.648-.557t1.318-.529a4.957,4.957,0,0,0,1.239-.692,2.406,2.406,0,0,0,.836-1.265l.725.222q-.254.692-.53,1.594t-.428,1.54q-.892.327-1.959.665t-2.179.683q-1.106.327-2.187.638t-1.969.555Zm-.92-.282c.069-.178.121-.326.157-.444.053-.127.1-.259.142-.4s.078-.257.111-.363a4.838,4.838,0,0,0,.243-1.777,3.427,3.427,0,0,0-.361-1.341,2.835,2.835,0,0,0-.8-.92,3.449,3.449,0,0,0-1.029-.518,3.353,3.353,0,0,0-2.431.1,3.632,3.632,0,0,0-1.71,2.443c-.092.3-.165.553-.221.757s-.1.409-.133.613Z" transform="translate(-423.607 -206.295)" fill="#3d3d3d"/>
      <path id="패스_142" data-name="패스 142" d="M445.372,272.922a5.288,5.288,0,0,1,1.7,1.215,5.487,5.487,0,0,1,1.08,1.677,5.08,5.08,0,0,1,.373,1.916,4.611,4.611,0,0,1-.432,1.953,5.693,5.693,0,0,1-1.165,1.685,4.935,4.935,0,0,1-1.635,1.088,4.8,4.8,0,0,1-1.959.342,5.424,5.424,0,0,1-2.126-.523,5.7,5.7,0,0,1-1.7-1.183,5.221,5.221,0,0,1-1.11-1.634,4.988,4.988,0,0,1-.391-1.9,4.62,4.62,0,0,1,.44-2,5.81,5.81,0,0,1,1.205-1.746,5.036,5.036,0,0,1,1.649-1.092,4.948,4.948,0,0,1,1.95-.324A5.431,5.431,0,0,1,445.372,272.922Zm-.647,1.956a6.888,6.888,0,0,0-1.464-.468,6.129,6.129,0,0,0-1.6-.123,3.794,3.794,0,0,0-1.446.43,2.305,2.305,0,0,0-1.02,1.121,2.335,2.335,0,0,0-.207,1.437,3.146,3.146,0,0,0,.548,1.264,4.529,4.529,0,0,0,1.049,1.055,6.733,6.733,0,0,0,2.649,1.2,5.176,5.176,0,0,0,1.589.119,3.536,3.536,0,0,0,1.485-.39,2.507,2.507,0,0,0,1.236-2.554,3.287,3.287,0,0,0-.557-1.291,5.074,5.074,0,0,0-1.03-1.046A6.432,6.432,0,0,0,444.725,274.878Z" transform="translate(-424.731 -205.127)" fill="#3d3d3d"/>
      <path id="패스_143" data-name="패스 143" d="M450.168,268.9q-1.165-.183-2.319-.371-1.163-.17-2.146-.339t-1.444-.278a1.442,1.442,0,0,0-.834.038,1.628,1.628,0,0,0-.692.72l-.668-.4q.175-.253.514-.8t.708-1.164q.357-.6.663-1.131t.415-.754l.686.409a2.134,2.134,0,0,0-.336,1.063c.034.2.207.338.519.43l5.433.929-3.242-4.32q-.342-.466-.68-.419t-.7.646l-.686-.409c.1-.134.235-.348.42-.644s.368-.611.553-.946.377-.637.543-.928.281-.5.346-.64l.7.42a1.429,1.429,0,0,0-.26,1.073,3.275,3.275,0,0,0,.57,1.044l7.39,10.114a1.672,1.672,0,0,1,.337,1.215,2.841,2.841,0,0,1-.37,1.2,1.329,1.329,0,0,1-.733.588,1.008,1.008,0,0,1-.885-.076,1.176,1.176,0,0,1-.53-.65,1.039,1.039,0,0,1,.042-.81,2.644,2.644,0,0,1,.321-.417,1.205,1.205,0,0,1,.479-.323.4.4,0,0,0,.245-.271.483.483,0,0,0-.033-.366l-2.356-3.124Q451.335,269.089,450.168,268.9Z" transform="translate(-425.089 -203.998)" fill="#3d3d3d"/>
      <path id="패스_144" data-name="패스 144" d="M461.627,255.587a10.35,10.35,0,0,1,.07,1.292,1.977,1.977,0,0,1-.4,1.2,1.216,1.216,0,0,1-.919.529,1.477,1.477,0,0,1-.956-.242,4.792,4.792,0,0,1-.064,1.576,4.327,4.327,0,0,1-.829,1.846,2.416,2.416,0,0,1-1.537,1,1.97,1.97,0,0,1-1.66-.447,2.157,2.157,0,0,1-.8-1.185,4.229,4.229,0,0,1-.066-1.556,9.519,9.519,0,0,1,.452-1.873q.343-1.008.75-2.135l-1.067-.8a2.169,2.169,0,0,0-1.339-.5,1.679,1.679,0,0,0-1.249.818,1.95,1.95,0,0,0-.415,1.275,1.417,1.417,0,0,0,.555,1.105,1.073,1.073,0,0,1,.47.67.908.908,0,0,1-.2.709.675.675,0,0,1-.544.335,1.034,1.034,0,0,1-.583-.23,1.519,1.519,0,0,1-.572-1.066,8.138,8.138,0,0,1,.122-2.132,10.339,10.339,0,0,1,.232-1.219,2.758,2.758,0,0,1,.466-.917,2.918,2.918,0,0,1,1.628-1.136,2.166,2.166,0,0,1,1.9.448l4.431,3.306q.855.637,1.15.411T461,255.3Zm-5.3.492a10.9,10.9,0,0,0-.9,3.006,1.651,1.651,0,0,0,.6,1.574,1.388,1.388,0,0,0,1.168.386,1.872,1.872,0,0,0,.9-.731,2.419,2.419,0,0,0,.446-1.265,4.895,4.895,0,0,0-.051-1.353Z" transform="translate(-425.85 -203.367)" fill="#3d3d3d"/>
      <path id="패스_145" data-name="패스 145" d="M453.767,244.562a6.159,6.159,0,0,0-.636-.5.849.849,0,0,0-.439-.168.672.672,0,0,0-.4.193,6.656,6.656,0,0,0-.5.52l-.462-.406a6.117,6.117,0,0,0,.57-1.256,4.274,4.274,0,0,0,.218-1.32l.5-.57q.376.41.872.885t.85.786l9.089,7.962a1.809,1.809,0,0,0,1.03.549q.414.01,1.022-.684l.57.5q-.283.323-.71.794t-.858.963l-.836.956q-.4.462-.646.768l-.57-.5q.621-.708.576-1.061t-.739-.96Z" transform="translate(-425.906 -202.363)" fill="#3d3d3d"/>
    </g>
  </g>
</svg>
