<svg id="insta_ico" xmlns="http://www.w3.org/2000/svg" width="26.583" height="26.568" viewBox="0 0 26.583 26.568">
  <g id="그룹_36" data-name="그룹 36" transform="translate(0 0)">
    <path id="SVGID_1_" d="M14.085,9.091a9.557,9.557,0,0,0-3.229.619,6.7,6.7,0,0,0-2.338,1.539A6.376,6.376,0,0,0,6.994,13.6a9.944,9.944,0,0,0-.619,3.229C6.315,18.248,6.3,18.7,6.3,22.307c.015,3.606.03,4.058.091,5.477A9.382,9.382,0,0,0,7.009,31,6.617,6.617,0,0,0,8.548,33.35,6.376,6.376,0,0,0,10.9,34.874a9.943,9.943,0,0,0,3.229.619c1.418.06,1.871.075,5.477.075,3.606-.015,4.058-.015,5.477-.091a9.557,9.557,0,0,0,3.229-.619,6.618,6.618,0,0,0,2.354-1.539,6.376,6.376,0,0,0,1.524-2.354,9.944,9.944,0,0,0,.619-3.229c.06-1.418.075-1.871.075-5.477-.015-3.606-.015-4.058-.091-5.477a9.557,9.557,0,0,0-.619-3.229A6.617,6.617,0,0,0,30.635,11.2a6.376,6.376,0,0,0-2.354-1.524,9.944,9.944,0,0,0-3.229-.619C23.62,9.015,23.167,9,19.561,9c-3.606.015-4.058.03-5.477.091m.151,24a7.367,7.367,0,0,1-2.459-.453,4.437,4.437,0,0,1-2.52-2.52,7.351,7.351,0,0,1-.468-2.459c-.06-1.4-.075-1.826-.091-5.371,0-3.545,0-3.968.06-5.371a7.367,7.367,0,0,1,.453-2.459,4.437,4.437,0,0,1,2.52-2.52,7.768,7.768,0,0,1,2.459-.468c1.4-.06,1.826-.075,5.356-.091,3.545,0,3.968,0,5.371.06a7.367,7.367,0,0,1,2.459.453,3.994,3.994,0,0,1,1.524,1,4.112,4.112,0,0,1,1,1.524,7.768,7.768,0,0,1,.468,2.459c.06,1.4.075,1.826.091,5.356.015,3.545,0,3.968-.06,5.371a7.574,7.574,0,0,1-.453,2.474,4.437,4.437,0,0,1-2.52,2.52,7.768,7.768,0,0,1-2.459.468c-1.4.06-1.826.075-5.371.091-3.53.015-3.953,0-5.356-.06M25.068,15.186a1.592,1.592,0,1,0,1.584-1.6,1.6,1.6,0,0,0-1.584,1.6m-12.3,7.106a6.819,6.819,0,1,0,6.8-6.834,6.812,6.812,0,0,0-6.8,6.834m2.384,0a4.428,4.428,0,1,1,4.436,4.42,4.44,4.44,0,0,1-4.436-4.42" transform="translate(-6.3 -9)" fill="rgba(255,255,255,0.8)"/>
  </g>
</svg>
