<svg xmlns="http://www.w3.org/2000/svg" width="180.148" height="31.246" viewBox="0 0 180.148 31.246">
  <g id="logo" transform="translate(-108.77 -84.378)">
    <g id="그룹_20" data-name="그룹 20" transform="translate(-76)">
      <path id="패스_31" data-name="패스 31" d="M187.552,110.507c.965,0,1.068.644,1.1.869l.013.088h1.03l-.008-.112a1.915,1.915,0,0,0-2.109-1.668c-1.873,0-2.545,1.552-2.545,3.006,0,.674.181,2.887,2.447,2.887a1.984,1.984,0,0,0,2.188-1.631l.015-.113h-1.052l-.02.082a.949.949,0,0,1-.24.53,1.1,1.1,0,0,1-.831.3c-.972,0-1.47-.694-1.47-2.059,0-.812.193-2.176,1.479-2.176" fill="#fff"/>
      <path id="패스_32" data-name="패스 32" d="M193.867,112.134h-2.438v-2.373h-.982v5.731h.982V113h2.438v2.49h.981v-5.731h-.981Z" fill="#fff"/>
      <path id="패스_33" data-name="패스 33" d="M199.867,113.257a1.261,1.261,0,0,1-1.4,1.459,1.41,1.41,0,0,1-1.189-.5,1.455,1.455,0,0,1-.227-.933v-3.526h-.982v3.47a2.34,2.34,0,0,0,.341,1.457,2.527,2.527,0,0,0,2.057.922,2.391,2.391,0,0,0,1.883-.8,2.342,2.342,0,0,0,.48-1.536v-3.511h-.958Z" fill="#fff"/>
      <path id="패스_34" data-name="패스 34" d="M205.905,114.059l-2.578-4.3h-1.236v5.731H203v-4.414l2.675,4.414h1.152v-5.731h-.922Z" fill="#fff"/>
      <path id="패스_35" data-name="패스 35" d="M210.646,113.191h1.271v1.453a3.662,3.662,0,0,1-1.106.154,1.792,1.792,0,0,1-1.406-.508,2.781,2.781,0,0,1-.486-1.67,2.532,2.532,0,0,1,.571-1.705,1.509,1.509,0,0,1,1.179-.431c.664,0,1.071.275,1.158.778l.014.09h1.043l-.008-.116a1.4,1.4,0,0,0-.4-.948,2.338,2.338,0,0,0-1.724-.617,2.939,2.939,0,0,0-1.61.408,3.213,3.213,0,0,0-1.244,2.642,3.027,3.027,0,0,0,.813,2.178,2.8,2.8,0,0,0,2.1.719,6.16,6.16,0,0,0,2.016-.346l.073-.021v-2.9h-2.254Z" fill="#fff"/>
      <path id="패스_36" data-name="패스 36" d="M217.931,114.055l-2.577-4.294h-1.237v5.731h.907v-4.414l2.675,4.414h1.151v-5.731h-.919Z" fill="#fff"/>
      <path id="패스_37" data-name="패스 37" d="M221.846,109.761l-2.443,5.73h1.028l.6-1.435h2.447l.6,1.435h1.065l-2.338-5.73Zm1.322,3.465h-1.8l.925-2.315Z" fill="#fff"/>
      <path id="패스_38" data-name="패스 38" d="M228.714,114.1l-1.5-4.343h-1.545v5.731h.959v-4.436l1.582,4.436h.881L230.737,111v4.488h.968v-5.731h-1.451Z" fill="#fff"/>
      <path id="패스_39" data-name="패스 39" d="M240.488,114.059l-2.576-4.3h-1.241v5.731h.916v-4.414l2.672,4.414h1.155v-5.731h-.926Z" fill="#fff"/>
      <path id="패스_40" data-name="패스 40" d="M245.368,109.761H244.4l-2.431,5.73h1.018l.6-1.435h2.449l.6,1.435h1.067l-2.31-5.662Zm.361,3.465h-1.806l.925-2.315Z" fill="#fff"/>
      <path id="패스_41" data-name="패스 41" d="M247.113,110.624h1.868v4.867h.976v-4.867h1.869v-.863h-4.713Z" fill="#fff"/>
      <rect id="사각형_12" data-name="사각형 12" width="0.979" height="5.729" transform="translate(252.508 109.761)" fill="#fff"/>
      <path id="패스_42" data-name="패스 42" d="M257.113,109.616a2.6,2.6,0,0,0-1.938.778,3.223,3.223,0,0,0-.744,2.271c0,1.912.931,2.959,2.623,2.959,1.707,0,2.685-1.109,2.685-3.049,0-1.881-.955-2.959-2.626-2.959m-.035,5.151a1.409,1.409,0,0,1-1.158-.469,2.617,2.617,0,0,1-.471-1.678c0-1.429.562-2.153,1.677-2.153,1.062,0,1.581.686,1.581,2.1a2.862,2.862,0,0,1-.476,1.731,1.432,1.432,0,0,1-1.153.471" fill="#fff"/>
      <path id="패스_43" data-name="패스 43" d="M264.534,114.055l-2.578-4.294H260.72v5.731h.914v-4.414l2.67,4.414h1.149v-5.731h-.919Z" fill="#fff"/>
      <path id="패스_44" data-name="패스 44" d="M269.415,109.761h-.965l-2.436,5.73h1.022l.6-1.435h2.448l.6,1.435h1.068l-2.313-5.662Zm.358,3.465h-1.8l.925-2.315Z" fill="#fff"/>
      <path id="패스_45" data-name="패스 45" d="M273.267,109.761h-.975v5.731h3.572V114.6h-2.6Z" fill="#fff"/>
      <path id="패스_46" data-name="패스 46" d="M282.539,113.257a1.26,1.26,0,0,1-1.4,1.459,1.409,1.409,0,0,1-1.19-.5,1.453,1.453,0,0,1-.228-.933v-3.526h-.981v3.47a2.347,2.347,0,0,0,.339,1.457,2.578,2.578,0,0,0,2.06.922,2.385,2.385,0,0,0,1.881-.8,2.342,2.342,0,0,0,.48-1.536v-3.511h-.959Z" fill="#fff"/>
      <path id="패스_47" data-name="패스 47" d="M288.426,114.055l-2.576-4.294H284.61v5.731h.912v-4.414l2.67,4.414h1.152v-5.731h-.919Z" fill="#fff"/>
      <rect id="사각형_13" data-name="사각형 13" width="0.983" height="5.729" transform="translate(290.565 109.761)" fill="#fff"/>
      <path id="패스_48" data-name="패스 48" d="M294.689,114.265l-1.51-4.5H292.1l2.034,5.666.024.064h1l2.135-5.731h-1Z" fill="#fff"/>
      <path id="패스_49" data-name="패스 49" d="M298.756,112.984h2.6v-.851h-2.6v-1.51h2.729v-.863h-3.709v5.729h3.77v-.878h-2.789Z" fill="#fff"/>
      <path id="패스_50" data-name="패스 50" d="M306.477,113.67v-.029a1.125,1.125,0,0,0-.637-1.053,1.294,1.294,0,0,0,.408-.284,1.45,1.45,0,0,0,.431-1.051,1.4,1.4,0,0,0-.671-1.215,2.584,2.584,0,0,0-1.338-.277h-2.1v5.73h.973V113h.868c.89,0,1.031.191,1.116.943l.017.135a8.348,8.348,0,0,0,.242,1.344l.024.068h1.052l-.052-.135a7.173,7.173,0,0,1-.338-1.686m-2.943-3.056h1.11c.5,0,1.011.09,1.011.789a.676.676,0,0,1-.327.629,1.566,1.566,0,0,1-.684.108h-1.11Z" fill="#fff"/>
      <path id="패스_51" data-name="패스 51" d="M311.357,112.612a4.6,4.6,0,0,0-1.653-.552l-.183-.042c-.714-.173-.923-.333-.923-.722,0-.494.423-.789,1.131-.789s1.046.242,1.072.746l.005.1h.9l.114-.025-.01-.111a1.472,1.472,0,0,0-.365-.987,2.3,2.3,0,0,0-1.647-.574c-1.107,0-2.229.53-2.229,1.719a1.35,1.35,0,0,0,.626,1.174,5.107,5.107,0,0,0,1.55.5c.833.207,1.2.314,1.2.834,0,.2-.086.883-1.2.883-1.2,0-1.225-.623-1.24-.995l0-.1h-1.008v.1a1.824,1.824,0,0,0,.345,1.187,2.344,2.344,0,0,0,1.816.664c1.4,0,2.3-.716,2.3-1.826a1.343,1.343,0,0,0-.6-1.186" fill="#fff"/>
      <rect id="사각형_14" data-name="사각형 14" width="0.981" height="5.729" transform="translate(312.896 109.761)" fill="#fff"/>
      <path id="패스_52" data-name="패스 52" d="M321.845,112.374l-1.586-2.613h-5.732v.863h1.868v4.867h.975v-4.867h2.01v-.354l1.938,2.979v2.242h.988v-2.2l2.267-3.526h-1.119Z" fill="#fff"/>
      <path id="패스_53" data-name="패스 53" d="M331.4,112.134h-2.438v-2.373h-.983v5.731h.983V113H331.4v2.49h.987v-5.731H331.4Z" fill="#fff"/>
      <path id="패스_54" data-name="패스 54" d="M336.016,109.616a2.6,2.6,0,0,0-1.94.778,3.223,3.223,0,0,0-.743,2.271c0,1.912.929,2.959,2.625,2.959s2.681-1.109,2.681-3.049c0-1.881-.954-2.959-2.623-2.959m-.038,5.151a1.4,1.4,0,0,1-1.156-.469,2.627,2.627,0,0,1-.467-1.678c0-1.429.562-2.153,1.669-2.153,1.067,0,1.588.686,1.588,2.1a2.88,2.88,0,0,1-.479,1.731,1.427,1.427,0,0,1-1.155.471" fill="#fff"/>
      <path id="패스_55" data-name="패스 55" d="M343.184,112.612a4.613,4.613,0,0,0-1.656-.552l-.176-.042c-.719-.173-.927-.333-.927-.722,0-.494.421-.789,1.133-.789.69,0,1.042.242,1.068.746l.008.1h.9l.109-.025-.008-.115a1.472,1.472,0,0,0-.365-.983,2.307,2.307,0,0,0-1.644-.574c-1.112,0-2.23.53-2.23,1.719a1.339,1.339,0,0,0,.622,1.17,4.956,4.956,0,0,0,1.551.506c.836.207,1.2.314,1.2.834,0,.2-.088.883-1.2.883-1.2,0-1.227-.648-1.239-.995l0-.1h-1.011v.1a1.816,1.816,0,0,0,.347,1.187,2.342,2.342,0,0,0,1.812.664c1.4,0,2.309-.716,2.309-1.826a1.346,1.346,0,0,0-.6-1.186" fill="#fff"/>
      <path id="패스_56" data-name="패스 56" d="M346.691,109.761h-1.97v5.729h.982v-2.452h.8c1.035,0,1.442-.19,1.756-.5a1.581,1.581,0,0,0,.47-1.154,1.6,1.6,0,0,0-.436-1.144,1.94,1.94,0,0,0-1.6-.477m-.173,2.429H345.7v-1.6h.978c.516,0,1.02.056,1.02.761,0,.77-.61.838-1.183.838" fill="#fff"/>
      <rect id="사각형_15" data-name="사각형 15" width="0.986" height="5.729" transform="translate(349.438 109.761)" fill="#fff"/>
      <path id="패스_57" data-name="패스 57" d="M355.781,109.761h-4.713v.863h1.876v4.867h.97v-4.867h1.867Z" fill="#fff"/>
      <path id="패스_58" data-name="패스 58" d="M358.469,109.761H357.5l-2.436,5.73h1.025l.6-1.435h2.45l.6,1.435h1.069l-2.316-5.662Zm.357,3.465h-1.8l.925-2.315Z" fill="#fff"/>
      <path id="패스_59" data-name="패스 59" d="M362.324,114.6v-4.84h-.977v5.731h3.57V114.6Z" fill="#fff"/>
      <path id="패스_60" data-name="패스 60" d="M265.162,100.51h17.327v5.41h3.718V97.657H265.162Z" fill="#fff"/>
      <path id="패스_61" data-name="패스 61" d="M212.735,104a1.805,1.805,0,0,0,.584,1.476,2.443,2.443,0,0,0,1.582.438h16.365a2.28,2.28,0,0,0,1.544-.431,1.728,1.728,0,0,0,.62-1.483v-6.6H212.735Zm3.722-3.738h13.252v2.794H216.457Z" fill="#fff"/>
      <path id="패스_62" data-name="패스 62" d="M349.156,100.5h3.7V96.06h7.959v1.67h-5.469v2.777h8.584a.6.6,0,0,0,.577-.58v-14h-3.692v7.355h-3.76a4.109,4.109,0,0,0,1-2.7,4.373,4.373,0,0,0-1.622-3.4,7.6,7.6,0,0,0-3.7-1.664,8.638,8.638,0,0,0-1.664-.151,9.763,9.763,0,0,0-1.6.124,8.037,8.037,0,0,0-3.8,1.691,4.37,4.37,0,0,0-1.628,3.4,4.1,4.1,0,0,0,1,2.7h-3.447V96.06h7.564ZM348.4,88.767a4.683,4.683,0,0,1,2.636-.756,4.612,4.612,0,0,1,2.588.756,2.189,2.189,0,0,1,1.157,1.833,2.141,2.141,0,0,1-1.162,1.8,4.483,4.483,0,0,1-2.583.776A4.581,4.581,0,0,1,348.4,92.4a2.156,2.156,0,0,1-1.16-1.8,2.2,2.2,0,0,1,1.163-1.833" fill="#fff"/>
      <path id="패스_63" data-name="패스 63" d="M265.981,92.761a4.7,4.7,0,0,0,1.918,2.66,6.083,6.083,0,0,0,1.793.829,10.366,10.366,0,0,0,2.067.342c.329.024.664.032,1,.032a13,13,0,0,0,1.5-.085A8.026,8.026,0,0,0,276.468,96a6.055,6.055,0,0,0,1.071-.573,4.666,4.666,0,0,0,1.913-2.661,3.619,3.619,0,0,0-.678-3.378h2.433V86.531h-6.636V84.714h-3.705v1.817h-6.635v2.852h2.431a3.652,3.652,0,0,0-.681,3.378m9.4.74a5.3,5.3,0,0,1-5.329,0,2.294,2.294,0,0,1-.941-2.375,3.083,3.083,0,0,1,2.6-2,6.647,6.647,0,0,1,1.012-.073,7.063,7.063,0,0,1,1,.073,3.168,3.168,0,0,1,2.6,2,2.294,2.294,0,0,1-.939,2.38" fill="#fff"/>
      <path id="패스_64" data-name="패스 64" d="M308.6,85.917H292.745v2.867h15.217a1.605,1.605,0,0,1,1.506,1.668v11.59h-3.816V94.117h-3.718v7.925h-3.1V94.117h-3.7v7.925h-3.787v2.838h21.821V90.424c0-4.689-4.569-4.507-4.569-4.507" fill="#fff"/>
      <path id="패스_65" data-name="패스 65" d="M334.728,87.607h-4.4v-1.68h-3.687v2.381h-6.615V85.927h-3.7V93.9a1.959,1.959,0,0,0,2.128,2.125l11.871-.007V94.11h4.4v2.559h3.686V85.927h-3.686Zm-8.084,5.749H320.03V90.98h6.614Zm8.084-1.9h-4.4V90.251h4.4Z" fill="#fff"/>
      <path id="패스_66" data-name="패스 66" d="M347.269,103.1v-4.83h-3.694v5.719s-.218,1.933,2.166,1.933h19.07V103.1Z" fill="#fff"/>
      <path id="패스_67" data-name="패스 67" d="M252.489,86.428v12.1h-8.047A1.414,1.414,0,0,1,242.863,97V88.784h6.864V85.927H239.138V96.8s-.258,4.586,4.947,4.586h8.4v4.535h3.422V88.784H257.8V105.92h3.437V85.927h-8.148a.571.571,0,0,0-.6.5" fill="#fff"/>
      <path id="패스_68" data-name="패스 68" d="M282.489,86.462v9.329h3.718V88.784h3.244V85.927h-6.4a.568.568,0,0,0-.565.535" fill="#fff"/>
      <path id="패스_69" data-name="패스 69" d="M229.709,86.513v6.406H216.483a1.291,1.291,0,0,1-1.461-1.412v-5.58h-3.716v5.695s-.137,4.192,4.705,4.192l17.419-.006V88.784h3.243V85.927h-6.391a.578.578,0,0,0-.573.586" fill="#fff"/>
      <path id="패스_70" data-name="패스 70" d="M191.43,89.56c-.7.093-1.949.208-3.306.245-.8.024-1.387-.015-2.312,0v2.513c.929-.01,1.671.024,2.524,0,1.383-.036,2.6-.136,3.409-.231a10.084,10.084,0,0,0,4.892-1.707,10.086,10.086,0,0,0,4.9,1.707c.808.1,2.023.195,3.4.231.858.024,1.6-.01,2.528,0V89.805c-.925-.015-1.511.024-2.312,0-1.359-.037-2.6-.152-3.307-.245a4.744,4.744,0,0,1-2.521-.879h8.319V86.13h-9.155V84.378h-3.7V86.13h-9.151v2.551h8.313a4.71,4.71,0,0,1-2.518.879" fill="#fff"/>
      <path id="패스_71" data-name="패스 71" d="M184.77,95.464h10.017v1.265a8.894,8.894,0,0,0-3.892,1.589,4.075,4.075,0,0,0-1.738,3.284,4.178,4.178,0,0,0,2.363,3.673,9.792,9.792,0,0,0,5.187,1.314,9.543,9.543,0,0,0,5.056-1.314,4.206,4.206,0,0,0,2.356-3.673,4.073,4.073,0,0,0-1.737-3.284,8.6,8.6,0,0,0-3.894-1.6V95.464h10.019V92.782H184.77Zm15.6,6.138a1.889,1.889,0,0,1-1.16,1.587,4.969,4.969,0,0,1-2.591.685,5.042,5.042,0,0,1-2.645-.689,1.876,1.876,0,0,1-1.158-1.583,1.935,1.935,0,0,1,1.16-1.622,5.205,5.205,0,0,1,2.643-.666,5.1,5.1,0,0,1,2.591.666,1.939,1.939,0,0,1,1.16,1.622" fill="#fff"/>
      <path id="패스_72" data-name="패스 72" d="M336.326,98.317a8.683,8.683,0,0,0-3.944-1.606,10.937,10.937,0,0,0-1.78-.142,11.477,11.477,0,0,0-1.709.121,9.061,9.061,0,0,0-4.058,1.627A4.09,4.09,0,0,0,323.1,101.6a4.167,4.167,0,0,0,2.362,3.671,9.788,9.788,0,0,0,5.189,1.314,9.531,9.531,0,0,0,5.053-1.314,4.193,4.193,0,0,0,2.355-3.671,4.085,4.085,0,0,0-1.732-3.286m-3.174,4.872a4.941,4.941,0,0,1-2.59.685,5.048,5.048,0,0,1-2.644-.688,1.882,1.882,0,0,1-1.156-1.583,1.936,1.936,0,0,1,1.16-1.623,5.2,5.2,0,0,1,2.64-.666,5.1,5.1,0,0,1,2.593.666,1.932,1.932,0,0,1,1.16,1.623,1.882,1.882,0,0,1-1.163,1.586" fill="#fff"/>
    </g>
  </g>
</svg>
