<svg xmlns="http://www.w3.org/2000/svg" width="30.023" height="20.699" viewBox="0 0 30.023 20.699">
  <path id="twit_ico" d="M279.523,23.575a7.272,7.272,0,0,1-3.4-.346,3.642,3.642,0,0,0,3.268-1.948,5.373,5.373,0,0,1-3.539.392c-.053-.247-.109-.48-.166-.688-.794-2.922-3.515-5.272-6.362-4.986.229-.092.462-.18.7-.258.314-.113,2.153-.413,1.863-1.062-.247-.572-2.495.431-2.918.565.558-.212,1.486-.572,1.581-1.214a4.448,4.448,0,0,0-2.347,1.112,1.607,1.607,0,0,0,.452-.893c-2.283,1.461-3.621,4.4-4.7,7.262a11.213,11.213,0,0,0-2.276-1.831,59.675,59.675,0,0,0-7.7-3.395c-.109,1.175.582,2.742,2.565,3.779a6.272,6.272,0,0,0-1.846.219c.258,1.348,1.094,2.46,3.363,2.992a2.744,2.744,0,0,0-2.057.815,3.487,3.487,0,0,0,3.7,1.814c-2.3,1-.942,2.837.935,2.562a7.952,7.952,0,0,1-11.133.3c7.559,10.311,23.989,6.1,26.438-3.832A4.553,4.553,0,0,0,279.523,23.575Z" transform="translate(-249.5 -14.03)" fill="rgba(255,255,255,0.8)" fill-rule="evenodd"/>
</svg>
