<svg xmlns="http://www.w3.org/2000/svg" width="28.466" height="19.927" viewBox="0 0 28.466 19.927">
  <path id="youtube_ico" d="M159.482,236.362a3.566,3.566,0,0,0-2.516-2.516c-2.221-.6-11.122-.6-11.122-.6s-8.9,0-11.122.6a3.568,3.568,0,0,0-2.518,2.516,39.805,39.805,0,0,0,0,13.7,3.563,3.563,0,0,0,2.518,2.516c2.221.594,11.122.594,11.122.594s8.9,0,11.122-.594a3.566,3.566,0,0,0,2.516-2.516,39.8,39.8,0,0,0,0-13.7ZM143,247.484v-8.541l7.4,4.271Z" transform="translate(-131.61 -233.25)" fill="rgba(255,255,255,0.8)"/>
</svg>
